#N canvas 156 235 494 478 10;
#N canvas 248 141 684 516 find-pitchs 1;
#X obj 93 146 tabplay~;
#X msg 93 126 set \$1 \, bang;
#X floatatom 93 63 5 1 13 0 - - -;
#X floatatom 114 245 5 0 0 0 - - -;
#X obj 114 172 fiddle~ 2048;
#X obj 70 66 bng 15 250 50 0 empty empty empty 0 -6 0 8 -262144 -1
-1;
#X obj 162 256 mtof;
#X obj 55 270 f;
#X obj 55 345 pack f f;
#X obj 94 43 i;
#X obj 122 43 + 1;
#X msg 115 25 1;
#X obj 94 26 bng 15 250 50 0 empty empty empty 0 -6 0 8 -262144 -1
-1;
#X obj 43 173 bng 15 250 50 0 empty empty empty 0 -6 0 8 -258113 -1
-1;
#X msg 80 7 8;
#X obj 370 64 switch~;
#X obj 370 43 tgl 15 0 empty empty empty 0 -6 0 8 -262144 -1 -1 0 1
;
#X obj 438 13 bng 15 250 50 0 empty empty save 17 7 0 10 -258113 -1
-1;
#X floatatom 202 206 5 0 0 0 - - -;
#X msg 48 111 stop;
#X obj 161 330 phasor~;
#X obj 486 30 r \$0-dir;
#X obj 438 31 symbol;
#X msg 438 54 write \$1_pitchs.txt;
#X obj 93 105 makesymbol \$1-\$2-samp%s;
#X obj 55 439 tabwrite \$1-\$2-pitchs;
#X obj 438 75 s \$1-\$2-pitchs;
#X obj 158 371 *~;
#X obj 189 372 pow 3;
#X obj 217 339 hsl 128 15 0 1 0 0 empty empty empty -2 -8 0 10 -262144
-1 -1 0 1;
#X obj 174 207 tgl 15 0 empty empty empty 17 7 0 10 -262144 -1 -1 0
1;
#X obj 238 179 tabread \$1-\$2-pitchs;
#X obj 238 200 sel 0;
#X obj 114 208 spigot;
#X obj 93 82 t f f;
#X obj 325 221 tgl 15 0 empty empty empty 17 7 0 10 -262144 -1 -1 0
1;
#X obj 265 222 spigot;
#X obj 154 349 lop~ 1000;
#X obj 157 412 out B 1;
#X obj 156 303 * 44.1;
#X obj 156 279 / 48;
#X connect 0 0 4 0;
#X connect 0 0 38 0;
#X connect 1 0 0 0;
#X connect 2 0 34 0;
#X connect 3 0 7 1;
#X connect 3 0 6 0;
#X connect 4 0 33 0;
#X connect 5 0 2 0;
#X connect 6 0 40 0;
#X connect 7 0 8 0;
#X connect 8 0 25 0;
#X connect 9 0 10 0;
#X connect 9 0 2 0;
#X connect 10 0 9 1;
#X connect 11 0 9 1;
#X connect 12 0 9 0;
#X connect 13 0 7 0;
#X connect 14 0 9 0;
#X connect 16 0 15 0;
#X connect 17 0 22 0;
#X connect 18 0 3 0;
#X connect 19 0 0 0;
#X connect 20 0 37 0;
#X connect 21 0 22 1;
#X connect 22 0 23 0;
#X connect 23 0 26 0;
#X connect 24 0 1 0;
#X connect 27 0 38 0;
#X connect 28 0 27 1;
#X connect 29 0 28 0;
#X connect 30 0 33 1;
#X connect 31 0 32 0;
#X connect 32 1 36 0;
#X connect 33 0 3 0;
#X connect 34 0 8 1;
#X connect 34 0 24 0;
#X connect 34 1 31 0;
#X connect 35 0 36 1;
#X connect 36 0 3 0;
#X connect 37 0 27 0;
#X connect 39 0 20 0;
#X connect 40 0 39 0;
#X restore 35 367 pd find-pitchs;
#X obj 35 320 table \$1-\$2-pitchs 17;
#X obj 35 24 table \$1-\$2-samp1 2;
#X obj 35 42 table \$1-\$2-samp2 2;
#X obj 35 60 table \$1-\$2-samp3 2;
#X obj 35 78 table \$1-\$2-samp4 2;
#X obj 35 95 table \$1-\$2-samp5 2;
#X obj 35 114 table \$1-\$2-samp6 2;
#X obj 35 131 table \$1-\$2-samp7 2;
#X obj 35 149 table \$1-\$2-samp8 2;
#X obj 35 172 table \$1-\$2-samp9 2;
#X obj 35 190 table \$1-\$2-samp10 2;
#X obj 35 208 table \$1-\$2-samp11 2;
#X obj 35 226 table \$1-\$2-samp12 2;
#X obj 35 246 table \$1-\$2-samp13 2;
#X obj 35 262 table \$1-\$2-samp14 2;
#X obj 35 279 table \$1-\$2-samp15 2;
#X obj 35 297 table \$1-\$2-samp16 2;
#X obj 181 26 loadbang;
#X obj 181 94 s \$0-dir;
#X obj 180 125 r \$0-dir;
#X floatatom 218 198 5 0 0 0 - - -;
#X obj 180 198 t f f;
#X obj 207 220 pack f s;
#X obj 180 340 soundfiler;
#X obj 180 294 pack s s;
#X msg 180 315 read -resize \$2 \$1;
#X obj 180 175 for++ 1 \$4 100;
#X msg 312 173 read \$1_pitchs.txt;
#X obj 180 151 t b s s;
#X obj 180 271 makesymbol \$1-\$2-samp%s;
#X obj 251 22 bng 15 250 50 0 empty empty empty 17 7 0 10 -262144 -1
-1;
#X msg 207 241 symbol \$2\$1.wav;
#X obj 312 194 s \$1-\$2-pitchs;
#X text 42 2 Bank \$0 bankID name num;
#X obj 235 108 makesymbol %s/Cloches/wav/MyosotisBaroque/\$3/\$3;
#X obj 359 237 loadbang;
#X obj 359 260 f \$4;
#X msg 359 298 \$1 0;
#X obj 359 213 bng 15 250 50 0 empty empty empty 17 7 0 10 -262144
-1 -1;
#X obj 359 323 tabwrite \$1-\$2-props;
#X obj 359 360 table \$1-\$2-props 10;
#X obj 396 260 f \$5;
#X msg 396 298 \$1 1;
#X floatatom 396 280 5 0 0 0 - - -;
#X obj 181 48 getdir;
#X obj 181 72 makesymbol %s/../0CollecClochePiedRTWOS/\$3/\$3;
#X connect 18 0 45 0;
#X connect 20 0 29 0;
#X connect 22 0 30 0;
#X connect 22 1 23 0;
#X connect 23 0 32 0;
#X connect 25 0 26 0;
#X connect 26 0 24 0;
#X connect 27 0 21 0;
#X connect 27 0 22 0;
#X connect 28 0 33 0;
#X connect 29 0 27 0;
#X connect 29 1 23 1;
#X connect 29 2 28 0;
#X connect 30 0 25 0;
#X connect 31 0 45 0;
#X connect 32 0 25 1;
#X connect 36 0 37 0;
#X connect 36 0 42 0;
#X connect 37 0 38 0;
#X connect 38 0 40 0;
#X connect 42 0 44 0;
#X connect 43 0 40 0;
#X connect 44 0 43 0;
#X connect 45 0 46 0;
#X connect 46 0 19 0;
