#N canvas 104 506 935 576 10;
#X obj 169 9 r \$1-keys;
#X obj 180 158 sel 1;
#X obj 312 496 s \$0-play;
#X obj 169 29 route \$2;
#X obj 312 258 i;
#X obj 312 282 + 1;
#X obj 169 52 tgl 15 0 empty empty empty 17 7 0 10 -262144 -1 -1 0
1;
#X obj 312 304 mod 32;
#X floatatom 359 28 5 1 5000 0 metro - -;
#X obj 377 83 hsl 128 15 0 1 0 0 empty empty timeratio -2 -8 0 10 -262130
-1 -1 8800 1;
#X obj 566 129 pack f f;
#X obj 593 102 t b f;
#X obj 597 82 hsl 128 15 0 1 0 0 \$0-sampleOffset-snd \$0-sampleOffset-rcv
sampleOffset -2 -8 0 10 -159808 -1 -1 0 1;
#X obj 569 49 hsl 128 15 0 1 0 0 \$0-sampleRnd-snd \$0-sampleRnd-rcv
sampleRnd -2 -8 0 10 -232576 -1 -1 3100 1;
#X obj 560 287 pack f f;
#X obj 578 264 t b f;
#X obj 603 223 hsl 128 15 -500 2000 0 0 \$0-startOffset-snd \$0-startOffset-rcv
startOffset -2 -8 0 10 -4034 -1 -1 2540 1;
#X obj 563 191 hsl 128 15 0 1000 0 0 \$0-startRnd-snd \$0-startRnd-rcv
startRnd -2 -8 0 10 -204786 -1 -1 0 1;
#X floatatom 536 217 5 0 0 0 - - -;
#X floatatom 683 247 5 0 0 0 - - -;
#X text 586 160 start rnd/offset;
#X obj 509 19 s \$0-env;
#X obj 392 111 hsl 128 15 0 1 0 0 \$0-air-snd \$0-air-rcv air -2 -8
0 10 -204800 -1 -1 0 1;
#X text 588 15 numSmple rnd/offset;
#X msg 502 354 0;
#X floatatom 486 377 5 0 0 1 adjust - -;
#X msg 468 353 10;
#X msg 716 159 0;
#X obj 42 302 subgranul \$0 0 \$1;
#X obj 725 198 hsl 128 15 -50 500 0 0 empty empty empty -2 -8 0 10
-262144 -1 -1 0 1;
#N canvas 14 350 343 416 chooseSmp 0;
#X obj 78 265 + 1;
#X obj 177 104 unpack f f;
#X text 197 85 num rnd/offset;
#X obj 79 307 + 1;
#X obj 78 226 / 1000;
#X obj 78 203 random;
#X obj 177 2 inlet rnd/offset;
#X msg 77 70 set \$1 \, 0;
#X obj 177 150 * 8;
#X obj 240 161 * 8;
#X obj 177 172 * 1000;
#X obj 79 285 mod 8;
#X obj 77 93 tabread;
#X obj 34 -4 inlet bank;
#X obj 34 338 pack f f;
#X obj 34 364 outlet bank num;
#X obj 34 19 t f b f;
#X obj 77 48 makesymbol \$1-%s-props;
#X connect 0 0 11 0;
#X connect 1 0 8 0;
#X connect 1 1 9 0;
#X connect 3 0 14 1;
#X connect 4 0 0 0;
#X connect 5 0 4 0;
#X connect 6 0 1 0;
#X connect 7 0 12 0;
#X connect 8 0 10 0;
#X connect 9 0 0 1;
#X connect 10 0 5 1;
#X connect 11 0 3 0;
#X connect 12 0 8 1;
#X connect 12 0 9 1;
#X connect 12 0 11 1;
#X connect 13 0 16 0;
#X connect 14 0 15 0;
#X connect 16 0 14 0;
#X connect 16 1 5 0;
#X connect 16 2 17 0;
#X connect 17 0 7 0;
#X restore 352 249 pd chooseSmp;
#N canvas 17 355 450 300 startPoint 0;
#X obj 128 115 random 400;
#X obj 128 146 + 50;
#X obj 186 92 unpack f f;
#X obj 128 58 inlet bang;
#X obj 206 58 inlet start rnd/offset;
#X obj 128 172 outlet ms;
#X connect 0 0 1 0;
#X connect 1 0 5 0;
#X connect 2 0 0 1;
#X connect 2 1 1 1;
#X connect 3 0 0 0;
#X connect 4 0 2 0;
#X restore 416 294 pd startPoint;
#X obj 344 179 t b b b;
#N canvas 240 87 549 498 metro 0;
#X obj 57 238 tgl 15 0 empty empty empty 17 7 0 10 -262144 -1 -1 0
1;
#X obj 88 305 metro 200;
#X msg 44 259 0;
#X obj 88 357 >=;
#X obj 88 378 sel 1;
#X obj 196 321 * 999;
#X obj 88 327 random 1020;
#X obj 88 412 outlet;
#X obj 88 223 inlet on;
#X obj 239 12 inlet ms;
#X floatatom 203 40 5 0 0 0 metro - -;
#X obj 315 56 t b f;
#X obj 239 40 max 1;
#X obj 315 33 clip 0 1;
#X obj 291 111 unpack f f;
#X obj 348 135 * 6;
#X obj 318 160 *;
#X obj 291 135 t f f;
#X floatatom 353 159 5 0 0 0 - - -;
#X obj 401 158 t b f;
#X floatatom 416 126 5 0 0 0 - - -;
#X text 416 109 air;
#X obj 419 97 hsl 128 15 0 1 0 0 empty empty air -2 -8 0 10 -262144
-1 -1 0 1;
#X obj 315 4 inlet timeratio;
#X obj 401 61 inlet air;
#X obj 364 370 outlet lenMs;
#X obj 139 281 unpack f f;
#X obj 291 86 pack 50 1;
#X obj 291 209 pack 50 f;
#X connect 0 0 1 0;
#X connect 1 0 6 0;
#X connect 2 0 1 0;
#X connect 3 0 4 0;
#X connect 4 0 7 0;
#X connect 5 0 3 1;
#X connect 6 0 3 0;
#X connect 8 0 1 0;
#X connect 9 0 12 0;
#X connect 10 0 12 0;
#X connect 11 0 27 0;
#X connect 11 1 27 1;
#X connect 12 0 27 0;
#X connect 13 0 11 0;
#X connect 14 0 17 0;
#X connect 14 1 15 0;
#X connect 15 0 16 1;
#X connect 15 0 18 0;
#X connect 16 0 25 0;
#X connect 17 0 28 0;
#X connect 17 1 16 0;
#X connect 19 0 28 0;
#X connect 19 1 28 1;
#X connect 20 0 19 0;
#X connect 22 0 20 0;
#X connect 23 0 13 0;
#X connect 24 0 19 0;
#X connect 26 0 1 1;
#X connect 26 1 5 0;
#X connect 27 0 14 0;
#X connect 28 0 26 0;
#X restore 344 158 pd metro;
#N canvas 871 135 467 331 getBank 0;
#X obj 61 267 f;
#X obj 278 207 inlet;
#X obj 61 9 inlet bang;
#X obj 61 297 outlet bank;
#N canvas 840 369 247 318 rndBank 0;
#X obj 58 23 inlet;
#X obj 86 269 outlet;
#X obj 104 46 dollarg;
#X obj 104 72 list split 2;
#X obj 58 127 t a a;
#X obj 85 149 length;
#X obj 85 169 t b f;
#X obj 85 190 random;
#X obj 58 222 list split;
#X obj 86 245 unpack f;
#X obj 58 105 list;
#X obj 104 24 loadbang;
#X obj 104 5 bng 15 250 50 0 empty empty empty 17 7 0 10 -262144 -1
-1;
#X connect 0 0 10 0;
#X connect 2 0 3 0;
#X connect 3 1 10 1;
#X connect 4 0 8 0;
#X connect 4 1 5 0;
#X connect 5 0 6 0;
#X connect 6 0 7 0;
#X connect 6 1 7 1;
#X connect 7 0 8 1;
#X connect 8 1 9 0;
#X connect 9 0 1 0;
#X connect 10 0 4 0;
#X connect 11 0 2 0;
#X restore 149 204 pd rndBank;
#X obj 61 142 t b b;
#X obj 149 124 r \$0-on;
#X obj 149 150 sel 1;
#X obj 83 172 spigot;
#X obj 149 175 spigot;
#X obj 195 148 tgl 15 0 empty empty rndStart 17 7 0 10 -262144 -1 -1
0 1;
#X obj 116 151 tgl 15 0 empty empty empty 17 7 0 10 -262144 -1 -1 0
1;
#X obj 168 67 hradio 15 1 0 8 empty empty rndGrain/rndStart/Bank1/Bank2...
0 -8 0 10 -262144 -1 -1 3;
#X obj 168 6 i;
#X obj 168 30 change;
#X obj 206 6 inlet;
#X obj 149 90 t f f;
#N canvas 1010 276 247 440 getBank 0;
#X obj 58 23 inlet;
#X obj 86 299 outlet;
#X obj 120 68 dollarg;
#X obj 120 94 list split 2;
#X obj 58 252 list split;
#X obj 86 275 unpack f;
#X obj 58 192 list;
#X obj 120 46 loadbang;
#X obj 120 27 bng 15 250 50 0 empty empty empty 17 7 0 10 -262144 -1
-1;
#X obj 58 46 t b f;
#X obj 154 134 list length;
#X obj 154 158 - 1;
#X obj 115 195 min;
#X obj 115 223 + 0;
#X connect 0 0 9 0;
#X connect 2 0 3 0;
#X connect 3 1 6 1;
#X connect 3 1 10 0;
#X connect 4 1 5 0;
#X connect 5 0 1 0;
#X connect 6 0 4 0;
#X connect 7 0 2 0;
#X connect 9 0 6 0;
#X connect 9 1 12 0;
#X connect 10 0 11 0;
#X connect 11 0 12 1;
#X connect 12 0 13 0;
#X connect 13 0 4 1;
#X restore 305 175 pd getBank;
#X obj 266 133 moses 2;
#X obj 305 154 - 2;
#X obj 116 124 == 0;
#X obj 199 127 == 1;
#X connect 0 0 3 0;
#X connect 1 0 0 1;
#X connect 2 0 5 0;
#X connect 4 0 0 1;
#X connect 5 0 0 0;
#X connect 5 1 8 0;
#X connect 6 0 7 0;
#X connect 7 0 9 0;
#X connect 8 0 4 0;
#X connect 9 0 4 0;
#X connect 10 0 9 1;
#X connect 11 0 8 1;
#X connect 12 0 16 0;
#X connect 13 0 14 0;
#X connect 14 0 12 0;
#X connect 15 0 13 0;
#X connect 16 0 18 0;
#X connect 16 1 20 0;
#X connect 16 1 21 0;
#X connect 17 0 0 1;
#X connect 18 1 19 0;
#X connect 19 0 17 0;
#X connect 20 0 11 0;
#X connect 21 0 10 0;
#X restore 352 223 pd getBank;
#N canvas 58 234 509 532 pitch 0;
#X obj 123 222 t f f;
#X obj 124 440 -;
#X obj 123 201 tabread \$1-\$2-pitchs;
#X obj 124 273 +;
#X obj 124 249 t f b;
#X obj 153 274 random 5;
#X obj 153 297 - 2;
#X obj 260 274 - 1;
#X obj 260 296 / 2;
#X obj 324 172 hradio 15 1 0 12 empty empty ambitus 0 -8 0 10 -262144
-1 -1 0;
#X obj 278 221 + 1;
#X floatatom 346 138 5 0 0 0 - - -;
#X obj 124 361 pack f 1000;
#X msg 349 319 0;
#X floatatom 333 342 5 0 0 1 adjust - -;
#X floatatom 276 318 5 0 0 0 - - -;
#X obj 203 251 t f f;
#X obj 333 365 pow 3;
#X msg 319 319 10;
#X floatatom 325 404 5 0 0 0 - - -;
#X obj 180 123 makesymbol \$1-%s-pitchs;
#X msg 180 145 set \$1;
#X obj 123 43 inlet bank num;
#X msg 123 76 \$2 \$1;
#X obj 123 100 unpack f f;
#X obj 124 471 outlet;
#X obj 339 114 inlet ambitus;
#X obj 375 320 inlet adjust;
#X obj 124 396 gammeRound \$0-gamme;
#X obj 124 332 +;
#X obj 422 449 inlet transpo;
#X connect 0 0 4 0;
#X connect 0 1 1 1;
#X connect 1 0 25 0;
#X connect 2 0 0 0;
#X connect 3 0 29 0;
#X connect 4 0 3 0;
#X connect 4 1 5 0;
#X connect 5 0 6 0;
#X connect 6 0 3 1;
#X connect 7 0 8 0;
#X connect 8 0 6 1;
#X connect 8 0 15 0;
#X connect 9 0 10 0;
#X connect 10 0 16 0;
#X connect 11 0 10 0;
#X connect 12 0 28 0;
#X connect 13 0 14 0;
#X connect 14 0 17 0;
#X connect 16 0 5 1;
#X connect 16 1 7 0;
#X connect 17 0 12 1;
#X connect 17 0 19 0;
#X connect 18 0 14 0;
#X connect 20 0 21 0;
#X connect 21 0 2 0;
#X connect 22 0 23 0;
#X connect 23 0 24 0;
#X connect 24 0 2 0;
#X connect 24 1 20 0;
#X connect 26 0 10 0;
#X connect 27 0 17 0;
#X connect 28 0 1 0;
#X connect 29 0 12 0;
#X connect 30 0 29 1;
#X restore 352 369 pd pitch;
#X obj 379 412 unpack f f;
#X obj 455 325 hradio 15 1 0 12 \$0-ambitus-snd \$0-ambitus-rcv ambitus
0 -8 0 10 -203904 -1 -1 3;
#X obj 745 128 hsl 128 15 -50 500 0 0 empty empty empty -2 -8 0 10
-262144 -1 -1 0 1;
#X obj 742 170 line;
#X msg 742 148 \$1 80;
#X floatatom 50 133 5 0 0 0 - - -;
#X obj 169 75 s \$0-on;
#X msg 107 76 2000;
#X msg 68 74 1000;
#X msg 37 74 500;
#X msg 8 72 0;
#N canvas 53 453 450 300 decay/maxTime 0;
#X obj 159 152 del;
#X obj 159 85 sel 0 1;
#X msg 175 108 stop;
#X msg 199 165 1;
#X msg 159 174 0;
#X obj 159 196 change;
#X obj 159 48 r \$0-on;
#X obj 263 130 del 1e+06;
#X obj 314 46 r \$1-maxTime;
#X msg 120 111 stop;
#X msg 263 154 0;
#X obj 263 178 s \$0-on;
#X obj 159 220 outlet onMetro;
#X obj 314 71 sel 0;
#X msg 314 93 1e+06;
#X obj 174 131 r \$1-release;
#X connect 0 0 4 0;
#X connect 1 0 0 0;
#X connect 1 0 9 0;
#X connect 1 1 2 0;
#X connect 1 1 3 0;
#X connect 1 1 7 0;
#X connect 2 0 0 0;
#X connect 3 0 5 0;
#X connect 4 0 5 0;
#X connect 5 0 12 0;
#X connect 6 0 1 0;
#X connect 7 0 10 0;
#X connect 8 0 13 0;
#X connect 9 0 7 0;
#X connect 10 0 11 0;
#X connect 13 0 14 0;
#X connect 13 1 7 1;
#X connect 14 0 7 1;
#X connect 15 0 0 1;
#X restore 307 -27 pd decay/maxTime;
#X obj 52 263 s \$1-maxTime;
#X msg 31 195 0;
#X msg 99 198 1000;
#X floatatom 51 236 5 0 0 0 - - -;
#X obj 49 156 s \$1-release;
#N canvas 82 297 450 300 release 0;
#X obj 112 93 r \$0-on;
#X obj 112 116 pack f f;
#X obj 112 138 route 0 1;
#X obj 112 188 line;
#X obj 112 216 t b f;
#X msg 112 162 1000 \$1;
#X msg 168 161 0;
#X obj 84 216 +;
#X obj 84 36 inlet startpoint;
#X obj 84 243 outlet startpoint;
#X obj 172 90 r \$1-release;
#X connect 0 0 1 0;
#X connect 1 0 2 0;
#X connect 2 0 5 0;
#X connect 2 1 6 0;
#X connect 3 0 4 0;
#X connect 4 0 7 0;
#X connect 4 1 7 1;
#X connect 5 0 3 0;
#X connect 6 0 3 0;
#X connect 7 0 9 0;
#X connect 8 0 7 0;
#X connect 10 0 1 1;
#X restore 578 241 pd release;
#N canvas 76 312 450 300 release 0;
#X obj 112 93 r \$0-on;
#X obj 112 116 pack f f;
#X obj 112 138 route 0 1;
#X obj 112 188 line;
#X obj 112 216 t b f;
#X msg 168 161 0;
#X obj 84 216 +;
#X obj 84 36 inlet air;
#X obj 84 266 outlet air;
#X msg 112 162 1 \$1;
#X obj 84 242 clip 0 1;
#X obj 172 90 r \$1-release;
#X connect 0 0 1 0;
#X connect 1 0 2 0;
#X connect 2 0 9 0;
#X connect 2 1 5 0;
#X connect 3 0 4 0;
#X connect 4 0 6 0;
#X connect 4 1 6 1;
#X connect 5 0 3 0;
#X connect 6 0 10 0;
#X connect 7 0 6 0;
#X connect 9 0 3 0;
#X connect 10 0 8 0;
#X connect 11 0 1 1;
#X restore 389 131 pd release;
#X msg 59 195 500;
#N canvas 924 239 450 300 volume 0;
#X obj 59 25 inlet bank num;
#X obj 59 127 tabread;
#X obj 59 82 makesymbol \$1-%s-props;
#X obj 59 56 unpack f f;
#X msg 59 104 set \$1 \, 1;
#X obj 208 30 r \$0-on;
#X obj 208 53 pack f f;
#X obj 208 75 route 0 1;
#X obj 208 125 line;
#X obj 259 30 r \$1-release;
#X msg 264 98 1;
#X msg 208 99 0 \$1;
#X obj 59 163 *;
#X obj 59 250 outlet;
#X obj 241 169 pow 2;
#X obj 241 146 inlet vol;
#X obj 59 191 * 1;
#X obj 59 223 * 1;
#X obj 115 198 r \$1-volgran;
#X obj 116 220 pow 2;
#X connect 0 0 3 0;
#X connect 1 0 12 0;
#X connect 2 0 4 0;
#X connect 3 0 2 0;
#X connect 4 0 1 0;
#X connect 5 0 6 0;
#X connect 6 0 7 0;
#X connect 7 0 11 0;
#X connect 7 1 10 0;
#X connect 8 0 12 1;
#X connect 9 0 6 1;
#X connect 10 0 8 0;
#X connect 11 0 8 0;
#X connect 12 0 16 0;
#X connect 14 0 16 1;
#X connect 15 0 14 0;
#X connect 16 0 17 0;
#X connect 17 0 13 0;
#X connect 18 0 19 0;
#X connect 19 0 17 1;
#X restore 450 413 pd volume;
#X obj 352 284 t a a a;
#X obj 515 412 hsl 128 15 0 1.3 0 0 \$0-volume-snd \$0-volume-rcv volume
-2 -8 0 10 -1 -262144 -1 0 1;
#X obj 786 265 r \$1-Gammes;
#X obj 786 291 route \$2 -1;
#X obj 786 319 s \$0-gamme;
#X obj 56 325 subgranul \$0 1 \$1;
#X obj 68 342 subgranul \$0 2 \$1;
#X obj 82 361 subgranul \$0 3 \$1;
#X obj 101 391 subgranul \$0 4 \$1;
#X obj 111 410 subgranul \$0 5 \$1;
#X obj 125 429 subgranul \$0 6 \$1;
#X obj 138 449 subgranul \$0 7 \$1;
#X obj 312 467 pack f f \$2 f f 350 1 2;
#X text 458 466 subID pitch smpBank smpNum startpoint len vol out;
#N canvas 913 411 450 300 out 0;
#X obj 69 37 inlet bang;
#X obj 69 103 random 2;
#X obj 69 276 outlet;
#X obj 324 108 tabread \$1-outtable;
#X msg 324 85 0;
#X floatatom 291 221 5 0 0 0 - - -;
#X obj 69 128 + 1;
#X obj 69 243 tabread \$1-outtable;
#X obj 163 7 r \$0-on;
#X obj 163 61 pack f f;
#X obj 163 83 route 0 1;
#X obj 163 133 line;
#X msg 219 106 0;
#X msg 163 107 1 \$1;
#X obj 214 38 r \$1-release;
#X obj 163 185 *;
#X obj 69 179 min;
#X obj 207 154 max 0;
#X obj 163 207 + 1;
#X floatatom 24 222 5 0 0 0 - - -;
#X obj 207 135 - 1;
#X obj 69 154 i;
#X obj 35 82 bng 15 250 50 0 empty empty empty 17 7 0 10 -262144 -1
-1;
#X floatatom 266 180 5 0 0 0 - - -;
#X floatatom 123 127 5 0 0 0 - - -;
#X obj 163 30 t f f;
#X obj 324 62 sel 1;
#X obj 158 159 f;
#X connect 0 0 1 0;
#X connect 1 0 6 0;
#X connect 3 0 16 1;
#X connect 3 0 20 0;
#X connect 4 0 3 0;
#X connect 6 0 21 0;
#X connect 7 0 2 0;
#X connect 8 0 25 0;
#X connect 9 0 10 0;
#X connect 10 0 13 0;
#X connect 10 1 12 0;
#X connect 11 0 24 0;
#X connect 11 0 27 0;
#X connect 12 0 11 0;
#X connect 13 0 11 0;
#X connect 14 0 9 1;
#X connect 15 0 18 0;
#X connect 16 0 7 0;
#X connect 16 0 19 0;
#X connect 17 0 15 1;
#X connect 17 0 23 0;
#X connect 18 0 6 1;
#X connect 18 0 5 0;
#X connect 20 0 17 0;
#X connect 21 0 16 0;
#X connect 22 0 1 0;
#X connect 25 0 9 0;
#X connect 25 1 26 0;
#X connect 26 0 4 0;
#X connect 27 0 15 0;
#X restore 491 439 pd out;
#X obj 418 203 init \$3;
#X obj 409 173 hradio 15 1 0 8 \$0-bank-snd \$0-bank-rcv rndGrain/rndStart/Bank1/Bank2...
0 -8 0 10 -258113 -1 -1 3;
#N canvas 41 318 450 300 adjust 0;
#X obj 112 5 inlet;
#X floatatom 325 79 5 0 0 0 - - -;
#X obj 275 40 r \$1-tempoMs;
#X floatatom 178 28 5 0 0 0 - - -;
#X obj 112 200 outlet;
#X floatatom 131 83 5 0 0 0 - - -;
#X obj 189 96 / 2000;
#X obj 189 127 * 16;
#X obj 189 176 / 16;
#X obj 189 197 * 2000;
#X floatatom 192 233 5 0 0 0 - - -;
#X obj 189 155 adjust 20;
#X connect 0 0 4 0;
#X connect 0 0 6 0;
#X connect 2 0 6 1;
#X connect 2 0 9 1;
#X connect 3 0 6 0;
#X connect 6 0 7 0;
#X connect 7 0 11 0;
#X connect 8 0 9 0;
#X connect 9 0 10 0;
#X connect 11 0 8 0;
#X restore 359 49 pd adjust;
#N canvas 676 153 585 508 APs 0;
#X obj 52 3 apmaster \$0;
#X obj 78 313 apgetval \$1-Props name;
#X msg 78 291 get;
#X obj 78 334 symbol;
#X msg 51 430 savefile \$1;
#X obj 51 452 s \$0-apmaster-rcv;
#X obj 56 87 bng 15 250 50 0 empty empty saveFile 17 7 0 10 -258113
-1 -1;
#X obj 51 360 getdir;
#X obj 51 267 t b b;
#X obj 51 382 pack s s \$2;
#X msg 51 407 symbol \$1/../aps/\$2/\$3.pre;
#X obj -11 36 r \$0-SAVE;
#X obj 262 318 apgetval \$1-Props name;
#X msg 262 296 get;
#X obj 262 339 symbol;
#X obj 235 457 s \$0-apmaster-rcv;
#X obj 140 89 bng 15 250 50 0 empty empty reloadFile 17 7 0 10 -4034
-1 -1;
#X obj 235 365 getdir;
#X obj 235 272 t b b;
#X obj 235 387 pack s s \$2;
#X msg 235 412 symbol \$1/../aps/\$2/\$3.pre;
#X obj 203 30 r \$0-LOAD;
#X msg 235 435 loadfile \$1;
#X obj 326 226 loadbang;
#X obj 54 26 hradio 15 1 0 8 empty empty empty 0 -8 0 10 -4034 -1 -1
0;
#X obj 54 49 hradio 15 1 0 8 empty empty empty 0 -8 0 10 -258113 -1
-1 0;
#X msg -12 182 _all_ load \$1;
#X msg 110 183 _all_ store \$1;
#X obj 278 0 apf \$0 metro \$0-metro;
#X obj 278 21 apf \$0 env \$0-env;
#X obj -12 207 s \$0-pattern-snd;
#X obj 278 41 apf \$0 timeratio \$0-timeratio;
#X obj 279 62 apf \$0 air \$0-air;
#X obj 279 83 api \$0 bank \$0-bank;
#X obj 280 103 api \$0 sampleRnd \$0-sampleRnd;
#X obj 279 123 api \$0 sampleOffset \$0-sampleOffset;
#X obj 280 143 api \$0 startRnd \$0-startRnd;
#X obj 280 162 api \$0 startOffset \$0-startOffset;
#X obj 280 182 api \$0 ambitus \$0-ambitus;
#X obj 280 201 api \$0 adjust \$0-adjust;
#X obj 420 4 api \$0 volume \$0-volume;
#X obj 392 223 api \$0 transpo \$0-transpo;
#X connect 1 0 3 0;
#X connect 2 0 1 0;
#X connect 3 0 9 1;
#X connect 4 0 5 0;
#X connect 6 0 8 0;
#X connect 7 0 9 0;
#X connect 8 0 7 0;
#X connect 8 1 2 0;
#X connect 9 0 10 0;
#X connect 10 0 4 0;
#X connect 11 0 6 0;
#X connect 12 0 14 0;
#X connect 13 0 12 0;
#X connect 14 0 19 1;
#X connect 16 0 18 0;
#X connect 17 0 19 0;
#X connect 18 0 17 0;
#X connect 18 1 13 0;
#X connect 19 0 20 0;
#X connect 20 0 22 0;
#X connect 21 0 16 0;
#X connect 22 0 15 0;
#X connect 23 0 16 0;
#X connect 24 0 26 0;
#X connect 25 0 27 0;
#X connect 26 0 30 0;
#X connect 27 0 30 0;
#X coords 0 -1 1 1 150 100 1 40 20;
#X restore 714 -33 pd APs;
#X obj 363 9 hsl 128 15 4 5000 1 0 \$0-metro-snd \$0-metro-rcv metro
-2 -8 0 10 -257985 -1 -1 7600 1;
#X obj 509 -21 hsl 128 15 1 200 1 0 \$0-env-snd \$0-env-rcv env -2
-8 0 10 -191407 -1 -1 2900 1;
#X floatatom 507 -1 5 0 0 0 - - -;
#X obj 180 209 random 10000;
#X obj 180 230 / 10000;
#X msg 180 273 _all_ load \$1;
#X obj 180 298 s \$0-pattern-snd;
#X obj 180 133 r \$0-on;
#X floatatom 250 248 5 0 0 0 - - -;
#X text 12 -51 Granul1 \$0 key bank1 bank2...;
#X obj 579 371 hsl 128 15 0 30 0 0 \$0-adjust-snd \$0-adjust-rcv adjust
-2 -8 0 10 -4160 -1 -1 0 1;
#X obj 180 185 spigot 1;
#X obj 225 166 == 0;
#X obj 235 118 tgl 40 0 empty empty EDIT 1 20 0 16 -260097 -1 -1 1
1;
#X obj 180 253 * 6.999;
#X obj 728 371 hsl 128 15 0 12 0 0 \$0-transpo-snd \$0-transpo-rcv
transpo -2 -8 0 10 -203904 -1 -1 0 1;
#X connect 0 0 3 0;
#X connect 1 0 87 0;
#X connect 3 0 6 0;
#X connect 4 0 5 0;
#X connect 5 0 7 0;
#X connect 6 0 42 0;
#X connect 7 0 4 1;
#X connect 7 0 69 0;
#X connect 8 0 74 0;
#X connect 9 0 33 2;
#X connect 10 0 30 1;
#X connect 11 0 10 0;
#X connect 11 1 10 1;
#X connect 12 0 11 0;
#X connect 13 0 10 0;
#X connect 14 0 31 1;
#X connect 15 0 14 0;
#X connect 15 1 14 1;
#X connect 16 0 19 0;
#X connect 16 0 53 0;
#X connect 17 0 14 0;
#X connect 17 0 18 0;
#X connect 22 0 54 0;
#X connect 24 0 25 0;
#X connect 25 0 35 2;
#X connect 26 0 25 0;
#X connect 27 0 16 0;
#X connect 29 0 16 0;
#X connect 30 0 57 0;
#X connect 31 0 69 4;
#X connect 32 0 4 0;
#X connect 32 1 34 0;
#X connect 32 2 31 0;
#X connect 32 2 71 0;
#X connect 33 0 32 0;
#X connect 33 1 69 5;
#X connect 34 0 30 0;
#X connect 35 0 69 1;
#X connect 36 0 69 2;
#X connect 36 1 69 3;
#X connect 37 0 35 1;
#X connect 38 0 40 0;
#X connect 39 0 16 0;
#X connect 40 0 39 0;
#X connect 41 0 52 0;
#X connect 43 0 41 0;
#X connect 44 0 41 0;
#X connect 45 0 41 0;
#X connect 46 0 41 0;
#X connect 47 0 33 0;
#X connect 49 0 51 0;
#X connect 50 0 51 0;
#X connect 51 0 48 0;
#X connect 53 0 15 0;
#X connect 54 0 33 3;
#X connect 55 0 51 0;
#X connect 56 0 69 6;
#X connect 57 0 35 0;
#X connect 57 1 36 0;
#X connect 57 2 56 0;
#X connect 58 0 56 1;
#X connect 59 0 60 0;
#X connect 60 0 61 0;
#X connect 60 1 61 0;
#X connect 69 0 2 0;
#X connect 71 0 69 7;
#X connect 72 0 34 2;
#X connect 73 0 34 1;
#X connect 74 0 33 1;
#X connect 76 0 8 0;
#X connect 77 0 78 0;
#X connect 78 0 21 0;
#X connect 79 0 80 0;
#X connect 80 0 90 0;
#X connect 81 0 82 0;
#X connect 83 0 1 0;
#X connect 86 0 25 0;
#X connect 87 0 79 0;
#X connect 88 0 87 1;
#X connect 89 0 88 0;
#X connect 90 0 81 0;
#X connect 90 0 84 0;
#X connect 91 0 35 3;
