#N canvas 687 82 542 684 10;
#X obj 84 527 tabread4~;
#X obj 83 494 line~;
#X msg 231 283 set \$1;
#X obj 110 275 * 44.1;
#X obj 155 254 mtof;
#X obj 155 274 / 8.1758;
#X obj 83 -14 r \$1-play;
#X obj 84 558 *~;
#X obj 83 105 f;
#X text 27 -37 sub \$0 subID smp\$0;
#X obj 83 63 sel \$2;
#X obj 83 211 unpack f f f;
#X obj 110 323 +;
#X obj 83 355 pack f f f;
#X obj 83 251 t f f;
#X obj 110 302 *;
#X obj 238 487 vline~;
#X msg 83 467 \$3 \, \$2 \$1;
#X obj 83 380 t b a;
#X obj 83 431 list;
#X msg 238 316 \$1;
#X obj 171 295 * 44.1;
#X obj 83 406 del 2;
#X obj 83 39 mod 8;
#X obj 237 557 cos~;
#X obj 238 581 +~ 1;
#X obj 237 601 *~ 0.5;
#X obj 238 532 +~ 0.5;
#X obj 238 508 *~ 0.5;
#X obj 238 340 t f f;
#X obj 238 442 pack f f;
#X obj 238 401 -;
#X obj 292 329 r \$1-env;
#X obj 292 358 max 2;
#X floatatom 334 371 5 0 0 0 - - -;
#X obj 265 363 / 2;
#X msg 231 237 \$2 \$3;
#X obj 231 262 makesymbol \$3-%s-samp%s;
#X text 136 190 len pitch startpoint;
#X text 268 235 smpBank smpNum;
#X msg 83 191 \$5 \$1 \$4;
#X obj 238 422 + 2;
#X msg 238 464 0 2 \, 1 \$2 2 \, 0 \$2 \$1;
#X floatatom 309 422 5 0 0 0 - - -;
#X obj 265 394 min 100;
#X obj 237 624 *~;
#X msg 405 231 \$6;
#X obj 83 149 t a a a;
#X text 209 9 subID pitch smpBank smpNum startpoint len vol out;
#X obj 83 10 unpack f f f f f f f f;
#X obj 83 125 pack f f f f f f f;
#X text 198 123 pitch smpBank smpNum startpoint len vol out;
#X msg 425 268 \$7;
#X obj 385 459 del 2;
#X obj 385 438 b;
#X obj 385 482 f;
#X obj 84 622 out CP 1;
#X connect 0 0 7 0;
#X connect 1 0 0 0;
#X connect 2 0 0 0;
#X connect 3 0 15 0;
#X connect 4 0 5 0;
#X connect 5 0 15 1;
#X connect 6 0 49 0;
#X connect 7 0 56 0;
#X connect 8 0 50 0;
#X connect 10 0 8 0;
#X connect 11 0 14 0;
#X connect 11 1 4 0;
#X connect 11 2 21 0;
#X connect 12 0 13 1;
#X connect 13 0 18 0;
#X connect 13 0 20 0;
#X connect 14 0 13 0;
#X connect 14 1 3 0;
#X connect 15 0 12 0;
#X connect 16 0 28 0;
#X connect 17 0 1 0;
#X connect 18 0 22 0;
#X connect 18 1 19 1;
#X connect 19 0 17 0;
#X connect 20 0 29 0;
#X connect 21 0 12 1;
#X connect 21 0 13 2;
#X connect 22 0 19 0;
#X connect 23 0 10 0;
#X connect 24 0 25 0;
#X connect 25 0 26 0;
#X connect 26 0 45 0;
#X connect 27 0 24 0;
#X connect 28 0 27 0;
#X connect 29 0 31 0;
#X connect 29 1 35 0;
#X connect 30 0 42 0;
#X connect 30 0 54 0;
#X connect 31 0 41 0;
#X connect 32 0 33 0;
#X connect 32 0 34 0;
#X connect 33 0 44 1;
#X connect 35 0 44 0;
#X connect 36 0 37 0;
#X connect 37 0 2 0;
#X connect 40 0 11 0;
#X connect 41 0 30 0;
#X connect 42 0 16 0;
#X connect 44 0 30 1;
#X connect 44 0 31 1;
#X connect 44 0 43 0;
#X connect 45 0 7 1;
#X connect 46 0 45 1;
#X connect 47 0 40 0;
#X connect 47 1 36 0;
#X connect 47 2 46 0;
#X connect 47 2 52 0;
#X connect 49 0 23 0;
#X connect 49 1 8 1;
#X connect 49 2 50 1;
#X connect 49 3 50 2;
#X connect 49 4 50 3;
#X connect 49 5 50 4;
#X connect 49 6 50 5;
#X connect 49 7 50 6;
#X connect 50 0 47 0;
#X connect 52 0 55 1;
#X connect 53 0 55 0;
#X connect 54 0 53 0;
#X connect 55 0 56 1;
