#N canvas 743 95 534 491 10;
#X obj 171 388 tabread4~;
#X obj 172 364 line~;
#X obj 172 319 pack f 1e+06;
#X msg 172 255 1e+06;
#X msg 287 291 set \$1;
#X msg 172 341 0 \, \$1 \$2;
#X obj 172 276 * 44.1;
#X obj 220 275 mtof;
#X obj 220 295 / 8.1758;
#X obj 172 234 t b f;
#X obj 172 296 * 1;
#X obj 172 458 outlet~;
#X obj 172 210 unpack f f;
#X obj 153 29 r \$1-play;
#X obj 153 53 unpack f f f;
#X obj 153 86 - \$2;
#X obj 153 111 mod 5;
#X obj 153 135 sel 0 1;
#X obj 171 419 *~;
#X obj 254 394 line~;
#X msg 254 365 0 100;
#X msg 296 363 1 1;
#X obj 172 164 f;
#X obj 172 184 pack f f;
#X obj 287 270 makesymbol \$3-samp%s;
#X text 234 51 subID smpNum pitch;
#X text 39 2 subvox \$0 touch/subID bankID;
#X connect 0 0 18 0;
#X connect 1 0 0 0;
#X connect 2 0 5 0;
#X connect 3 0 6 0;
#X connect 4 0 0 0;
#X connect 5 0 1 0;
#X connect 6 0 10 0;
#X connect 7 0 8 0;
#X connect 8 0 10 1;
#X connect 9 0 3 0;
#X connect 9 1 7 0;
#X connect 10 0 2 0;
#X connect 12 0 9 0;
#X connect 12 1 24 0;
#X connect 13 0 14 0;
#X connect 14 0 15 0;
#X connect 14 1 22 1;
#X connect 14 2 23 1;
#X connect 15 0 16 0;
#X connect 16 0 17 0;
#X connect 17 0 20 0;
#X connect 17 1 22 0;
#X connect 17 1 21 0;
#X connect 18 0 11 0;
#X connect 19 0 18 1;
#X connect 20 0 19 0;
#X connect 21 0 19 0;
#X connect 22 0 23 0;
#X connect 23 0 12 0;
#X connect 24 0 4 0;
