#N canvas 52 166 693 467 10;
#X obj 194 10 r \$1-keys;
#X obj 194 51 sel 1;
#X obj 194 30 route \$2;
#N canvas 14 350 343 416 chooseSmp 0;
#X obj 78 265 + 1;
#X obj 177 104 unpack f f;
#X text 197 85 num rnd/offset;
#X obj 79 311 + 1;
#X obj 78 226 / 1000;
#X obj 177 2 inlet rnd/offset;
#X msg 77 70 set \$1 \, 0;
#X obj 177 150 * 8;
#X obj 240 161 * 8;
#X obj 177 172 * 1000;
#X obj 79 285 mod 8;
#X obj 77 93 tabread;
#X obj 34 -4 inlet bank;
#X obj 34 338 pack f f;
#X obj 34 364 outlet bank num;
#X obj 34 19 t f b f;
#X obj 77 48 makesymbol \$1-%s-props;
#X obj 78 203 random 8000;
#X connect 0 0 10 0;
#X connect 1 0 7 0;
#X connect 1 1 8 0;
#X connect 3 0 13 1;
#X connect 4 0 0 0;
#X connect 5 0 1 0;
#X connect 6 0 11 0;
#X connect 7 0 9 0;
#X connect 8 0 0 1;
#X connect 9 0 17 1;
#X connect 10 0 3 0;
#X connect 11 0 7 1;
#X connect 11 0 8 1;
#X connect 11 0 10 1;
#X connect 12 0 15 0;
#X connect 13 0 14 0;
#X connect 15 0 13 0;
#X connect 15 1 17 0;
#X connect 15 2 16 0;
#X connect 16 0 6 0;
#X connect 17 0 4 0;
#X restore 223 163 pd chooseSmp;
#X obj 223 136 f \$3;
#X obj 284 202 unpack f f;
#X obj 194 77 bng 15 250 50 0 empty empty empty 17 7 0 10 -262144 -1
-1;
#X floatatom 284 238 5 0 0 0 - - -;
#X floatatom 341 240 5 0 0 0 - - -;
#N canvas 659 104 509 532 pitch 0;
#X obj 123 268 t f f;
#X obj 123 440 -;
#X obj 123 201 tabread \$1-\$2-pitchs;
#X obj 259 278 +;
#X obj 259 254 t f b;
#X obj 288 279 random 5;
#X obj 288 302 - 2;
#X obj 384 270 - 1;
#X obj 384 292 / 2;
#X obj 324 172 hradio 15 1 0 12 empty empty ambitus 0 -8 0 10 -262144
-1 -1 0;
#X obj 278 221 + 1;
#X floatatom 346 138 5 0 0 0 - - -;
#X msg 320 339 0;
#X floatatom 304 362 5 0 0 1 adjust - -;
#X floatatom 400 314 5 0 0 0 - - -;
#X obj 327 247 t f f;
#X obj 304 385 pow 3;
#X msg 290 339 10;
#X floatatom 296 424 5 0 0 0 - - -;
#X obj 180 123 makesymbol \$1-%s-pitchs;
#X msg 180 145 set \$1;
#X obj 123 43 inlet bank num;
#X msg 123 76 \$2 \$1;
#X obj 123 100 unpack f f;
#X obj 123 491 outlet;
#X obj 339 114 inlet ambitus;
#X obj 346 340 inlet adjust;
#X obj 259 311 +;
#X obj 370 241 inlet transpo;
#X obj 159 461 clip -15 15;
#X floatatom 55 267 5 0 0 0 - - -;
#X floatatom 63 436 5 0 0 0 - - -;
#X floatatom 71 403 5 0 0 0 - - -;
#X floatatom 232 472 5 0 0 0 - - -;
#X obj 123 396 gammeRound GAMME;
#X obj 123 326 +;
#X obj 164 297 r \$1-transpose;
#X obj 123 361 pack f 10000;
#X floatatom 175 263 5 0 0 0 - - -;
#X connect 0 0 35 0;
#X connect 0 1 1 1;
#X connect 1 0 24 0;
#X connect 2 0 0 0;
#X connect 3 0 27 0;
#X connect 4 0 3 0;
#X connect 4 1 5 0;
#X connect 5 0 6 0;
#X connect 6 0 3 1;
#X connect 7 0 8 0;
#X connect 8 0 6 1;
#X connect 8 0 14 0;
#X connect 9 0 10 0;
#X connect 10 0 15 0;
#X connect 11 0 10 0;
#X connect 12 0 13 0;
#X connect 13 0 16 0;
#X connect 15 0 5 1;
#X connect 15 1 7 0;
#X connect 16 0 18 0;
#X connect 16 0 37 1;
#X connect 17 0 13 0;
#X connect 19 0 20 0;
#X connect 20 0 2 0;
#X connect 21 0 22 0;
#X connect 22 0 23 0;
#X connect 23 0 2 0;
#X connect 23 1 19 0;
#X connect 25 0 10 0;
#X connect 26 0 16 0;
#X connect 28 0 27 1;
#X connect 34 0 1 0;
#X connect 35 0 37 0;
#X connect 36 0 35 1;
#X connect 37 0 34 0;
#X restore 223 307 pd pitch;
#X obj 223 275 t a a;
#X text 375 386 subID pitch smpBank smpNum startpoint len vol out;
#X obj 179 300 i;
#X obj 179 322 + 1;
#X obj 285 309 unpack f f;
#X obj 192 386 pack f f \$3 f 0 1e+06 1 1;
#X obj 398 304 + 1;
#X obj 398 330 tabread \$1-outtable;
#X obj 406 101 pow 2;
#X obj 406 77 r \$1-volvoix;
#X obj 192 415 s \$0-play2;
#X text 9 23 Voix2 \$0 touch bank;
#X obj 196 112 t b b b;
#X obj 77 355 print;
#X floatatom 296 351 5 0 0 0 - - -;
#X floatatom 295 429 5 0 0 0 - - -;
#X obj 524 59 r \$1-Gammes;
#X obj 524 85 route \$2 -1;
#X obj 524 113 s \$0-gamme;
#X obj 432 204 tabread \$1-\$3-props;
#X msg 432 178 1;
#X obj 405 226 *;
#X obj 405 157 t f b;
#X floatatom 503 276 5 0 0 0 - - -;
#X obj 406 130 f 1;
#X obj 398 279 random 0;
#X obj 500 238 r \$1-len;
#X obj 66 150 #subvox2 \$0 3 \$1;
#X obj 77 172 #subvox2 \$0 4 \$1;
#X floatatom 149 384 5 0 0 0 - - -;
#X obj 54 130 subvox2 \$0 2 \$1;
#X obj 28 90 subvox2 \$0 0 \$1;
#X obj 41 110 subvox2 \$0 1 \$1;
#X obj 179 347 mod 3;
#X connect 0 0 2 0;
#X connect 1 0 6 0;
#X connect 2 0 1 0;
#X connect 3 0 5 0;
#X connect 3 0 10 0;
#X connect 4 0 3 0;
#X connect 5 0 7 0;
#X connect 5 1 8 0;
#X connect 6 0 22 0;
#X connect 9 0 15 1;
#X connect 10 0 9 0;
#X connect 10 1 14 0;
#X connect 12 0 13 0;
#X connect 13 0 43 0;
#X connect 14 0 15 2;
#X connect 14 1 15 3;
#X connect 15 0 20 0;
#X connect 16 0 17 0;
#X connect 17 0 15 7;
#X connect 18 0 34 0;
#X connect 19 0 18 0;
#X connect 22 0 12 0;
#X connect 22 1 4 0;
#X connect 22 2 34 0;
#X connect 22 2 35 0;
#X connect 24 0 15 3;
#X connect 26 0 27 0;
#X connect 27 0 28 0;
#X connect 27 1 28 0;
#X connect 29 0 31 1;
#X connect 30 0 29 0;
#X connect 31 0 15 6;
#X connect 32 0 31 0;
#X connect 32 1 30 0;
#X connect 33 0 15 5;
#X connect 34 0 32 0;
#X connect 35 0 16 0;
#X connect 36 0 15 5;
#X connect 43 0 12 1;
#X connect 43 0 15 0;
