#N canvas 237 257 900 467 10;
#X declare -stdpath moonlib;
#X declare -stdpath hcs;
#X declare -stdpath ggee;
#X declare -stdpath zexy;
#X declare -lib zexy;
#X declare -stdpath moonlib;
#X declare -path ABS;
#X declare -path ../;
#X declare -path absGAMME;
#X declare -path ../;
#X obj 75 266 axl A;
#X obj 82 233 route 0 1 2 3;
#N canvas 352 74 548 415 Master 0;
#X obj 97 57 catch~ B-outl;
#X obj 196 54 catch~ B-outr;
#X obj 114 400 dac~;
#X obj 88 16 catch~ B-out1;
#X obj 183 15 catch~ B-out2;
#X obj 67 318 z~ 64;
#X obj 108 316 limiter~;
#X obj 70 345 *~;
#X obj 173 321 z~ 64;
#X obj 214 319 limiter~;
#X obj 176 348 *~;
#X obj 91 87 hp4_butt~ 120;
#X obj 185 91 hp4_butt~ 120;
#X obj 67 289 *~ 0.5;
#X obj 173 292 *~ 0.5;
#X obj 1 103 hip~ 800;
#X obj -1 127 delwrite~ \$0-dl 50;
#X obj 275 105 hip~ 800;
#X obj 273 129 delwrite~ \$0-dr 50;
#X obj 323 175 delread~ \$0-dl 3;
#X obj -17 158 delread~ \$0-dr 3;
#X obj -17 179 *~ 0.25;
#X obj 322 195 *~ 0.25;
#X obj 118 229 rev1~;
#X floatatom 206 200 5 0 0 0 - - -;
#X obj 202 153 loadbang;
#X obj 110 193 hip~ 1000;
#X msg 203 174 50;
#X obj 104 255 *~ 0.2;
#X obj 110 164 echo 200;
#X obj 360 298 sig~ 0.001;
#X connect 0 0 11 0;
#X connect 1 0 12 0;
#X connect 3 0 11 0;
#X connect 4 0 12 0;
#X connect 5 0 7 0;
#X connect 6 0 7 1;
#X connect 7 0 2 1;
#X connect 8 0 10 0;
#X connect 9 0 10 1;
#X connect 10 0 2 0;
#X connect 11 0 13 0;
#X connect 11 0 15 0;
#X connect 11 0 29 0;
#X connect 12 0 14 0;
#X connect 12 0 17 0;
#X connect 12 0 29 0;
#X connect 13 0 5 0;
#X connect 13 0 6 0;
#X connect 14 0 8 0;
#X connect 14 0 9 0;
#X connect 15 0 16 0;
#X connect 17 0 18 0;
#X connect 19 0 22 0;
#X connect 20 0 21 0;
#X connect 21 0 13 0;
#X connect 22 0 14 0;
#X connect 23 0 28 0;
#X connect 24 0 23 1;
#X connect 25 0 27 0;
#X connect 26 0 23 0;
#X connect 27 0 24 0;
#X connect 28 0 13 0;
#X connect 28 0 14 0;
#X connect 29 0 26 0;
#X connect 30 0 2 1;
#X connect 30 0 2 0;
#X restore 325 47 pd Master;
#X obj 82 207 analog/parse;
#X obj 77 22 pied/pied 0 51511;
#X obj 77 111 fruit/fruit 1 Bid1 1 Bid;
#X obj 82 175 fruit/receive Bid1;
#X obj 122 265 axl B;
#X obj 365 232 s Mode;
#X msg 341 183 oiseaux;
#X msg 400 185 rien;
#X msg 180 306 L\$1;
#X obj 182 286 tgl 15 0 empty empty empty 17 7 0 10 -262144 -1 -1 0
1;
#X obj 93 326 fruit/send2 Bid1;
#X obj 188 257 metro 1000;
#X obj 186 236 loadbang;
#X obj 239 235 bng 15 250 50 0 empty empty empty 17 7 0 10 -262144
-1 -1;
#X floatatom 294 241 5 0 0 0 - - -;
#X obj 290 295 timer;
#X obj 290 275 t b b;
#X floatatom 290 323 5 0 0 0 - - -;
#X floatatom 364 338 8 0 0 0 - - -;
#X obj 364 317 mavg 9;
#X obj 459 154 loadbang;
#X obj 238 205 unpack s s f;
#X obj 318 5 declare -path ABS;
#N canvas 4 75 630 337 baroque 0;
#X obj 312 51 Common \$0L \$1 rotob;
#X obj 130 85 Bank \$0L 1 ChantVincent 16 1;
#X obj 131 110 Bank \$0L 2 ChantNathalie 16 1;
#X obj 130 133 Bank \$0L 3 ChantDenis 8 1;
#X obj 130 158 Bank \$0L 4 ChantSakina 8 1;
#X obj 130 180 Bank \$0L 5 ChantChristian 8 1;
#X obj 129 205 Bank \$0L 6 ChantBarbara 8 1;
#X obj 323 100 Voix2 \$0L 1 1;
#X obj 324 120 Voix2 \$0L 2 2;
#X obj 325 143 Voix2 \$0L 3 3;
#X obj 326 163 Voix2 \$0L 4 4;
#X obj 327 183 Voix2 \$0L 5 5;
#X obj 328 202 Voix2 \$0L 6 6;
#X restore 328 113 pd baroque;
#X obj 478 35 Repie \$0 1 A 0;
#X obj 478 64 Myosotis \$0 1 A 1;
#X obj 477 93 Roto \$0 1 A 2;
#X obj 476 125 Syllabo \$0 1 A 3;
#X obj 459 234 hradio 15 1 0 4 empty empty empty 0 -8 0 10 -262144
-1 -1 0;
#X msg 461 178 0;
#X obj 557 211 hradio 15 1 0 4 empty empty empty 0 -8 0 10 -262144
-1 -1 0;
#X msg 553 182 1;
#N canvas 874 247 450 300 gammeseq 0;
#X obj 297 90 GAMMEKB \$0-xtalgam;
#X floatatom 214 60 5 0 0 0 - - -;
#X obj 114 92 GAMMEKB \$0-gam;
#X obj 214 35 r \$0-gam;
#N canvas 908 382 450 300 rot 0;
#X obj 92 18 inlet;
#X obj 92 89 t f f;
#X obj 119 141 >>;
#X obj 92 170 +;
#X obj 92 142 <<;
#X obj 135 78 * -1;
#X obj 135 100 + 12;
#X obj 92 67 f;
#X obj 92 193 outlet;
#X obj 187 8 inlet;
#X obj 187 54 mod 12;
#X obj 187 30 * -1;
#X connect 0 0 7 0;
#X connect 1 0 4 0;
#X connect 1 1 2 0;
#X connect 2 0 3 1;
#X connect 3 0 8 0;
#X connect 4 0 3 0;
#X connect 5 0 6 0;
#X connect 6 0 4 1;
#X connect 7 0 1 0;
#X connect 9 0 11 0;
#X connect 10 0 5 0;
#X connect 10 0 2 1;
#X connect 11 0 10 0;
#X restore 214 83 pd rot;
#X obj 251 57 t b f;
#X floatatom 277 32 5 0 0 0 - - -;
#X obj 214 117 s \$0-xtalgam;
#X obj 355 46 r \$0-basse;
#X obj 35 32 init 2709;
#X obj 35 57 s \$0-gam;
#X obj 62 180 random 12;
#X obj 61 154 bng 15 250 50 0 empty empty empty 17 7 0 10 -262144 -1
-1;
#X obj 63 202 + 24;
#X obj 57 235 s \$0-basse;
#X obj 28 122 metro 10000;
#X obj 25 105 tgl 15 0 empty empty empty 17 7 0 10 -262144 -1 -1 1
1;
#X obj 22 81 loadbang;
#X obj 222 145 r \$0-xtalgam;
#X obj 223 166 s GAMME;
#X connect 1 0 4 0;
#X connect 3 0 1 0;
#X connect 4 0 7 0;
#X connect 5 0 4 0;
#X connect 5 1 4 1;
#X connect 6 0 5 0;
#X connect 8 0 5 0;
#X connect 9 0 10 0;
#X connect 11 0 13 0;
#X connect 12 0 11 0;
#X connect 13 0 14 0;
#X connect 15 0 12 0;
#X connect 16 0 15 0;
#X connect 17 0 16 0;
#X connect 18 0 19 0;
#X restore 692 189 pd gammeseq;
#X obj 320 25 declare -path absGAMME;
#X obj 678 284 s AXLsens;
#X obj 679 223 loadbang;
#X msg 679 254 0.02;
#N canvas 38 131 949 625 oiseauxA 0;
#X obj 137 424 throw~ B-outl;
#X obj 234 424 throw~ B-outr;
#X obj 101 18 r axlA-x;
#X obj 143 313 osc~;
#X obj 298 44 r axlA-activity;
#X obj 137 344 mull~ 0 10;
#X floatatom 239 111 5 0 0 0 - - -;
#X obj 314 78 clip 0 1;
#X obj 179 30 r axlA-y;
#X obj 179 80 - 0.5;
#X obj 102 230 *~;
#X obj 161 185 osc~;
#X obj 165 223 *~ 0.5;
#X obj 100 269 +~ 500;
#X obj 101 181 *~ 6000;
#X obj 177 138 *~ 100;
#X obj 168 245 +~ 1;
#X msg 305 280 100;
#X obj 260 347 lop~ 100;
#X obj 185 383 rev1~;
#X floatatom 227 345 5 0 0 0 - - -;
#X obj 260 318 echo 250;
#X obj 223 298 loadbang;
#X msg 224 319 80;
#X obj 464 179 switch~;
#X obj 445 67 r OiseauxA;
#X obj 462 120 tgl 15 0 empty empty empty 17 7 0 10 -262144 -1 -1 0
1;
#X obj 296 122 * 0.3;
#X connect 2 0 14 0;
#X connect 3 0 5 0;
#X connect 4 0 7 0;
#X connect 5 0 0 0;
#X connect 5 0 21 0;
#X connect 7 0 27 0;
#X connect 8 0 9 0;
#X connect 9 0 15 0;
#X connect 10 0 13 0;
#X connect 11 0 12 0;
#X connect 12 0 16 0;
#X connect 13 0 3 0;
#X connect 14 0 10 0;
#X connect 15 0 11 0;
#X connect 16 0 10 1;
#X connect 17 0 21 1;
#X connect 18 0 19 0;
#X connect 18 0 1 0;
#X connect 19 0 0 0;
#X connect 19 0 1 0;
#X connect 20 0 19 1;
#X connect 21 0 18 0;
#X connect 22 0 23 0;
#X connect 23 0 20 0;
#X connect 25 0 26 0;
#X connect 26 0 24 0;
#X connect 27 0 5 1;
#X restore 487 10 pd oiseauxA;
#N canvas 315 79 473 466 oiseauxB 0;
#X obj 74 296 osc~;
#X obj 96 338 mull~ 0 10;
#X floatatom 198 105 5 0 0 0 - - -;
#X obj 255 86 clip 0 1;
#X obj 138 74 - 0.5;
#X obj 61 224 *~;
#X obj 120 179 osc~;
#X obj 124 217 *~ 0.5;
#X obj 127 239 +~ 1;
#X msg 264 274 100;
#X obj 219 341 lop~ 100;
#X obj 144 377 rev1~;
#X floatatom 186 339 5 0 0 0 - - -;
#X obj 219 312 echo 250;
#X obj 257 39 r axlB-activity;
#X obj 60 12 r axlB-y;
#X obj 140 23 r axlB-x;
#X obj 96 418 throw~ B-outr;
#X obj 193 418 throw~ B-outl;
#X obj 190 259 loadbang;
#X obj 59 263 +~ 100;
#X msg 192 279 60;
#X obj 382 123 switch~;
#X floatatom 197 106 5 0 0 0 - - -;
#X obj 60 176 *~ 8000;
#X obj 136 132 *~ 80;
#X obj 372 56 r OiseauxB;
#X obj 377 94 tgl 15 0 empty empty empty 17 7 0 10 -262144 -1 -1 0
1;
#X floatatom 336 179 5 0 0 0 - - -;
#X obj 255 155 * 0.3;
#X connect 0 0 1 0;
#X connect 1 0 13 0;
#X connect 1 0 17 0;
#X connect 3 0 29 0;
#X connect 4 0 25 0;
#X connect 5 0 20 0;
#X connect 6 0 7 0;
#X connect 7 0 8 0;
#X connect 8 0 5 1;
#X connect 9 0 13 1;
#X connect 10 0 11 0;
#X connect 10 0 18 0;
#X connect 11 0 17 0;
#X connect 11 0 18 0;
#X connect 12 0 11 1;
#X connect 13 0 10 0;
#X connect 14 0 3 0;
#X connect 14 0 28 0;
#X connect 15 0 24 0;
#X connect 16 0 4 0;
#X connect 19 0 21 0;
#X connect 20 0 0 0;
#X connect 21 0 12 0;
#X connect 24 0 5 0;
#X connect 25 0 6 0;
#X connect 26 0 27 0;
#X connect 27 0 22 0;
#X connect 29 0 1 1;
#X restore 609 10 pd oiseauxB;
#X obj 451 288 route 0 1;
#X obj 238 185 route Hello s;
#X obj 457 256 s ModeA;
#X obj 552 257 s ModeB;
#X obj 441 340 tgl 15 0 empty empty empty 17 7 0 10 -262144 -1 -1 0
1;
#X obj 535 341 tgl 15 0 empty empty empty 17 7 0 10 -262144 -1 -1 0
1;
#X obj 489 182 r ModeA;
#X msg 490 205 set \$1;
#X msg 578 186 set \$1;
#X obj 577 163 r ModeB;
#X obj 439 364 modeBouton \$0 A;
#X obj 548 369 modeBouton \$0 B;
#X obj 596 32 Repie \$0 2 B 0;
#X obj 596 61 Myosotis \$0 2 B 1;
#X obj 595 90 Roto \$0 2 B 2;
#X obj 595 125 Syllabo \$0 2 B 3;
#X msg 761 266 \; pd dsp 1;
#X obj 760 243 del 5000;
#X obj 439 315 != 0;
#X obj 479 310 != 0;
#X connect 1 0 0 0;
#X connect 1 1 0 1;
#X connect 1 2 7 0;
#X connect 1 3 7 1;
#X connect 3 0 1 0;
#X connect 6 0 3 0;
#X connect 6 0 43 0;
#X connect 9 0 8 0;
#X connect 10 0 8 0;
#X connect 11 0 13 1;
#X connect 12 0 11 0;
#X connect 14 0 12 0;
#X connect 15 0 14 0;
#X connect 16 0 14 0;
#X connect 17 0 19 0;
#X connect 18 0 20 0;
#X connect 18 0 22 0;
#X connect 19 0 18 0;
#X connect 19 1 18 1;
#X connect 22 0 21 0;
#X connect 23 0 32 0;
#X connect 23 0 34 0;
#X connect 24 2 17 0;
#X connect 31 0 44 0;
#X connect 32 0 31 0;
#X connect 33 0 45 0;
#X connect 34 0 33 0;
#X connect 38 0 39 0;
#X connect 38 0 59 0;
#X connect 39 0 37 0;
#X connect 42 0 60 0;
#X connect 42 1 61 0;
#X connect 43 0 24 0;
#X connect 43 1 42 0;
#X connect 46 0 52 0;
#X connect 47 0 53 0;
#X connect 48 0 49 0;
#X connect 49 0 31 0;
#X connect 50 0 33 0;
#X connect 51 0 50 0;
#X connect 59 0 58 0;
#X connect 60 0 46 0;
#X connect 61 0 47 0;
