#N canvas 8 75 462 435 10;
#X obj 95 37 inlet x;
#X obj 209 37 inlet y;
#X obj 96 129 t f f;
#X obj 98 159 -;
#X obj 97 222 abs;
#X obj 209 132 t f f;
#X obj 211 162 -;
#X obj 210 225 abs;
#X obj 181 271 max;
#X obj 95 69 / 16384;
#X obj 209 72 / 16384;
#X floatatom 300 73 5 0 0 0 - - -;
#X floatatom 285 248 5 0 0 0 - - -;
#X msg 334 127 0.08;
#X floatatom 325 162 5 0 0 0 - - -;
#X msg 371 127 0.2;
#X msg 396 125 1;
#X obj 183 362 clip 0 1;
#X obj 183 385 s axl\$1-activity;
#X obj 95 104 lopass 0.2;
#X obj 209 100 lopass 0.2;
#X obj 179 294 lopass 0.2;
#X obj 180 341 * 30;
#X obj 69 383 s axl\$1-x;
#X obj 321 384 s axl\$1-y;
#X obj 101 191 lopass 0.2;
#X obj 206 197 lopass 0.2;
#X obj 180 318 - 0.002;
#X connect 0 0 9 0;
#X connect 1 0 10 0;
#X connect 2 0 3 1;
#X connect 2 1 3 0;
#X connect 3 0 25 0;
#X connect 4 0 8 0;
#X connect 5 0 6 1;
#X connect 5 1 6 0;
#X connect 6 0 26 0;
#X connect 7 0 8 1;
#X connect 8 0 21 0;
#X connect 9 0 19 0;
#X connect 10 0 20 0;
#X connect 11 0 19 1;
#X connect 11 0 20 1;
#X connect 12 0 21 1;
#X connect 13 0 14 0;
#X connect 14 0 12 0;
#X connect 15 0 14 0;
#X connect 16 0 14 0;
#X connect 17 0 18 0;
#X connect 19 0 2 0;
#X connect 19 0 23 0;
#X connect 20 0 5 0;
#X connect 20 0 24 0;
#X connect 21 0 27 0;
#X connect 22 0 17 0;
#X connect 25 0 4 0;
#X connect 26 0 7 0;
#X connect 27 0 22 0;
