#N canvas 6 75 450 300 10;
#X obj 63 48 inlet~;
#X obj 193 89 outlet~;
#X obj 193 36 inlet;
#X obj 62 73 delwrite~ \$0-d 1000;
#X obj 193 65 delread~ \$0-d \$1;
#X connect 0 0 3 0;
#X connect 2 0 4 0;
#X connect 4 0 1 0;
