#N canvas 4 75 450 300 10;
#X obj 120 161 +;
#X obj 147 161 * 0.92;
#X obj 120 137 * 0.08;
#X obj 209 37 inlet;
#X obj 209 63 f \$1;
#X obj 253 37 loadbang;
#X obj 209 85 clip 0 1;
#X obj 209 108 * -1;
#X obj 209 129 + 1;
#X obj 120 89 inlet;
#X obj 120 197 outlet;
#X connect 0 0 1 0;
#X connect 0 0 10 0;
#X connect 1 0 0 1;
#X connect 2 0 0 0;
#X connect 3 0 4 0;
#X connect 4 0 6 0;
#X connect 5 0 4 0;
#X connect 6 0 2 1;
#X connect 6 0 7 0;
#X connect 7 0 8 0;
#X connect 8 0 1 1;
#X connect 9 0 2 0;
