#N canvas 14 160 527 449 10;
#X obj 119 36 inlet;
#X obj 119 102 sel 0 1;
#X msg 119 171 1;
#X msg 148 191 0;
#X obj 104 202 f;
#X obj 102 226 sel 0 1;
#X obj 64 307 tgl 15 0 empty empty empty 17 7 0 10 -262144 -1 -1 0
1;
#X obj 83 347 s Oiseaux\$2;
#X obj 138 262 i;
#X obj 144 306 mod 4;
#X obj 140 286 + 1;
#X floatatom 232 301 5 0 0 0 - - -;
#X obj 153 331 s Mode\$2;
#X obj 172 223 r Mode\$2;
#X obj 150 166 del 1000;
#X msg 166 137 stop;
#X obj 329 265 random 10000;
#X obj 327 286 / 10000;
#X obj 426 265 random 10000;
#X obj 424 286 / 10000;
#X obj 422 351 s env\$2;
#X obj 326 330 * 2000;
#X obj 344 221 t b b;
#X obj 325 391 s len\$2;
#X floatatom 302 411 5 0 0 0 - - -;
#X floatatom 402 370 5 0 0 0 - - -;
#X obj 349 161 bng 15 250 50 0 empty empty empty 17 7 0 10 -262144
-1 -1;
#X obj 327 307 pow 2;
#X obj 322 356 + 50;
#X obj 423 330 * 250;
#X obj 424 307 pow 3;
#X connect 0 0 1 0;
#X connect 1 0 4 0;
#X connect 1 0 15 0;
#X connect 1 1 2 0;
#X connect 1 1 14 0;
#X connect 2 0 4 1;
#X connect 3 0 4 1;
#X connect 4 0 5 0;
#X connect 5 1 8 0;
#X connect 6 0 7 0;
#X connect 8 0 10 0;
#X connect 9 0 11 0;
#X connect 9 0 12 0;
#X connect 9 0 26 0;
#X connect 10 0 9 0;
#X connect 13 0 8 1;
#X connect 14 0 3 0;
#X connect 14 0 6 0;
#X connect 15 0 14 0;
#X connect 16 0 17 0;
#X connect 17 0 27 0;
#X connect 18 0 19 0;
#X connect 19 0 30 0;
#X connect 21 0 28 0;
#X connect 22 0 16 0;
#X connect 22 1 18 0;
#X connect 26 0 22 0;
#X connect 27 0 21 0;
#X connect 28 0 23 0;
#X connect 28 0 24 0;
#X connect 29 0 20 0;
#X connect 29 0 25 0;
#X connect 30 0 29 0;
