#N canvas 191 286 677 575 10;
#X obj 15 180 tgl 20 0 \$0-on-snd \$0-on-rcv empty 0 -6 0 8 -258699
-1 -1 0 1;
#X obj 14 160 r \$0-onoff;
#X obj 15 206 switch~;
#X obj 154 39 dollarg;
#X obj 154 20 bng 15 250 50 0 empty empty empty 17 7 0 10 -262144 -1
-1;
#X obj 183 16 loadbang;
#X obj 154 63 Common \$0 \$1 myoso;
#X obj 343 44 == \$4;
#X obj 343 70 s \$0-onoff;
#X obj 175 108 Bank \$0 2 FluteB 8 1;
#X obj 172 85 Bank \$0 1 Epinette 8 1.5;
#X obj 182 175 Bank \$0 5 Cello 8 1;
#X obj 186 132 Bank \$0 3 Percu 12 3;
#X obj 178 156 Bank \$0 4 GtDidier 8 0.3;
#X obj 171 206 Bank \$0 6 CBNicolas 8 1.2;
#X obj 344 20 r Mode\$3;
#X obj 399 162 rcvAxl \$0 \$3 6;
#X obj 200 341 Voix2 \$0 6 6;
#X obj 198 276 Voix2 \$0 3 3;
#X obj 195 237 Voix2 \$0 1 1;
#X obj 198 257 Voix2 \$0 2 2;
#X obj 199 296 Voix2 \$0 4 4;
#X obj 200 317 Voix2 \$0 5 5;
#X connect 0 0 2 0;
#X connect 1 0 0 0;
#X connect 3 0 6 0;
#X connect 4 0 3 0;
#X connect 5 0 3 0;
#X connect 7 0 8 0;
#X connect 15 0 7 0;
