#N canvas 545 134 818 541 10;
#X obj 158 149 netsend;
#X obj 158 186 tgl 15 0 empty empty empty 17 7 0 10 -262144 -1 -1 0
1;
#X msg 227 156 disconnect;
#X floatatom 151 355 5 0 0 0 - - -, f 5;
#X msg 139 376 send ay3 \$1;
#X obj 231 23 tgl 15 0 empty empty empty 17 7 0 10 -262144 -1 -1 0
1;
#X msg 231 50 send accel \$1;
#X msg 220 83 connect 192.168.0.12 4152;
#X msg 189 116 connect localhost 4152;
#X obj 271 194 route orient;
#X obj 272 217 unpack f f;
#X floatatom 224 357 5 0 0 0 - - -, f 5;
#X obj 145 333 + 150;
#X msg 214 376 send ax3 \$1;
#X floatatom 256 265 5 0 0 0 - - -, f 5;
#X floatatom 180 268 5 0 0 0 - - -, f 5;
#X obj 132 440 t a;
#X floatatom 326 353 5 0 0 0 - - -, f 5;
#X floatatom 399 354 5 0 0 0 - - -, f 5;
#X floatatom 504 353 5 0 0 0 - - -, f 5;
#X floatatom 576 355 5 0 0 0 - - -, f 5;
#X msg 314 374 send ay2 \$1;
#X msg 389 373 send ax2 \$1;
#X msg 492 374 send ay1 \$1;
#X msg 566 374 send ax1 \$1;
#X obj 384 296 * 2;
#X obj 554 318 +;
#X floatatom 501 299 5 0 0 0 - - -, f 5;
#X floatatom 574 298 5 0 0 0 - - -, f 5;
#X floatatom 342 297 5 0 0 0 - - -, f 5;
#X floatatom 411 306 5 0 0 0 - - -, f 5;
#X obj 380 324 + 70;
#X obj 311 315 + 65;
#X obj 486 323 + 90;
#X obj 556 277 * -3;
#X obj 451 278 * -3;
#X obj 197 316 * 2;
#X obj 313 290 * -1;
#X obj 118 41 hradio 15 1 0 3 empty empty mode 0 -8 0 10 -262144 -1
-1 1;
#X msg 118 62 send mode \$1;
#X floatatom 40 304 5 0 0 0 - - -, f 5;
#X msg 36 340 send text z \$1;
#X msg 340 24 150;
#X msg 336 52 connect 192.168.1.\$1 4152;
#X connect 0 0 1 0;
#X connect 0 1 9 0;
#X connect 2 0 0 0;
#X connect 3 0 4 0;
#X connect 4 0 16 0;
#X connect 5 0 6 0;
#X connect 6 0 0 0;
#X connect 7 0 0 0;
#X connect 8 0 0 0;
#X connect 9 0 10 0;
#X connect 10 0 15 0;
#X connect 10 0 25 0;
#X connect 10 0 35 0;
#X connect 10 0 36 0;
#X connect 10 1 13 0;
#X connect 10 1 14 0;
#X connect 10 1 34 0;
#X connect 10 1 37 0;
#X connect 11 0 13 0;
#X connect 12 0 4 0;
#X connect 13 0 16 0;
#X connect 16 0 0 0;
#X connect 17 0 21 0;
#X connect 18 0 22 0;
#X connect 19 0 23 0;
#X connect 20 0 24 0;
#X connect 21 0 16 0;
#X connect 22 0 16 0;
#X connect 23 0 16 0;
#X connect 24 0 16 0;
#X connect 25 0 31 0;
#X connect 26 0 24 0;
#X connect 27 0 33 1;
#X connect 28 0 26 1;
#X connect 29 0 32 1;
#X connect 30 0 31 1;
#X connect 31 0 22 0;
#X connect 32 0 21 0;
#X connect 33 0 23 0;
#X connect 34 0 26 0;
#X connect 35 0 33 0;
#X connect 36 0 12 0;
#X connect 37 0 32 0;
#X connect 38 0 39 0;
#X connect 39 0 0 0;
#X connect 40 0 41 0;
#X connect 41 0 16 0;
#X connect 42 0 43 0;
#X connect 43 0 0 0;
