#N canvas 496 104 772 761 10;
#X obj 128 114 clip 0 1;
#X obj 124 141 hsl 128 15 0 1 0 0 empty empty empty -2 -8 0 10 -262144
-1 -1 2700 1;
#X obj 101 171 hsl 128 15 0 1 0 0 empty empty empty -2 -8 0 10 -262144
-1 -1 0 1;
#X obj 299 63 hsl 128 15 0 1 0 0 empty empty empty -2 -8 0 10 -262144
-1 -1 7853 1;
#X obj 262 277 change;
#X obj 235 307 b;
#X msg 203 423 \$1 1;
#X obj 260 338 bng 15 250 50 0 empty empty empty 17 7 0 10 -262144
-1 -1;
#X obj 260 251 > 0.4;
#X floatatom 159 361 5 0 0 0 - - -;
#X obj 208 393 i;
#X obj 123 244 + 1;
#X obj 127 91 maxlib/scale 0.2 0.5 0 1;
#X obj 121 219 * 5.5;
#X obj 133 36 r axl\$2-x;
#X obj 296 22 r axl\$2-y;
#X obj 205 535 s \$1-keys;
#X obj 165 316 clip 1 \$3;
#X obj 175 211 loadbang;
#X obj 174 234 f \$3;
#X obj 173 254 0.5;
#X obj 435 480 change;
#X obj 421 565 tgl 15 0 empty empty empty 17 7 0 10 -262144 -1 -1 1
1;
#X obj 407 309 t f f;
#X obj 407 339 moses 0.2;
#X obj 488 383 max;
#X obj 520 382 f;
#X obj 406 379 f;
#X obj 374 380 min;
#X msg 454 400 0;
#X msg 430 403 1;
#X obj 374 405 + 0.1;
#X obj 488 406 - 0.1;
#X obj 543 323 r AXLsens;
#X obj 239 461 r \$1-onoff;
#X obj 205 487 spigot;
#X obj 262 492 s \$1-stop;
#X obj 426 189 s \$1-transpose;
#X floatatom 368 31 5 0 0 0 - - -;
#X obj 428 140 - 0.5;
#X obj 427 165 * 48;
#X obj 244 362 bng 15 250 50 0 empty empty empty 17 7 0 10 -262144
-1 -1;
#X obj 535 496 r len\$2;
#X obj 607 496 r env\$2;
#X obj 535 517 s \$1-len;
#X obj 607 517 s \$1-env;
#X obj 277 411 metro 200;
#X obj 289 388 tgl 15 0 empty empty empty 17 7 0 10 -262144 -1 -1 1
1;
#X connect 0 0 1 0;
#X connect 1 0 13 0;
#X connect 3 0 23 0;
#X connect 3 0 39 0;
#X connect 4 0 5 0;
#X connect 5 0 7 0;
#X connect 5 0 10 0;
#X connect 6 0 35 0;
#X connect 8 0 4 0;
#X connect 10 0 6 0;
#X connect 11 0 17 0;
#X connect 12 0 0 0;
#X connect 13 0 11 0;
#X connect 14 0 12 0;
#X connect 15 0 3 0;
#X connect 17 0 9 0;
#X connect 17 0 10 1;
#X connect 18 0 19 0;
#X connect 19 0 20 0;
#X connect 20 0 13 1;
#X connect 21 0 22 0;
#X connect 21 0 5 0;
#X connect 23 0 24 0;
#X connect 24 0 28 0;
#X connect 24 0 29 0;
#X connect 24 1 25 0;
#X connect 24 1 30 0;
#X connect 25 0 26 0;
#X connect 25 0 32 0;
#X connect 26 0 25 1;
#X connect 27 0 28 1;
#X connect 28 0 27 0;
#X connect 28 0 31 0;
#X connect 29 0 26 0;
#X connect 29 0 21 0;
#X connect 30 0 27 0;
#X connect 30 0 21 0;
#X connect 31 0 24 1;
#X connect 32 0 24 1;
#X connect 33 0 31 1;
#X connect 33 0 32 1;
#X connect 34 0 35 1;
#X connect 34 0 36 0;
#X connect 35 0 16 0;
#X connect 39 0 40 0;
#X connect 40 0 37 0;
#X connect 41 0 10 0;
#X connect 42 0 44 0;
#X connect 43 0 45 0;
#X connect 46 0 41 0;
#X connect 47 0 46 0;
