#N canvas 434 79 596 621 10;
#X obj 12 205 tgl 20 0 \$0-on-snd \$0-on-rcv empty 0 -6 0 8 -258699
-1 -1 1 1;
#X obj 11 185 r \$0-onoff;
#X obj 12 116 mknob 25 100 0 1 0 1 \$0-vol-snd \$0-vol-rcv vol -2 -6
193 10 -258699 -1 -1 4400 1;
#X obj 12 231 switch~;
#N canvas 53 239 308 291 master 1;
#X obj 132 42 catch~ \$0-out;
#X obj 172 115 *~;
#X obj 202 93 pow 2;
#X obj 202 114 * 4;
#X obj 202 71 r \$0-vol-snd;
#X obj 121 186 out CP \$2;
#X obj 186 186 out CP \$3;
#X connect 0 0 1 0;
#X connect 1 0 5 0;
#X connect 1 0 6 0;
#X connect 2 0 3 0;
#X connect 3 0 1 1;
#X connect 4 0 2 0;
#X restore 11 50 pd master;
#N canvas 198 207 112 90 Interface 0;
#X obj 45 97 tgl 30 0 \$0-rep1-snd \$0-rep1-rcv 1 13 15 1 10 -262144
-1 -1 0 1;
#X obj 77 97 tgl 30 0 \$0-rep2-snd \$0-rep2-rcv 2 13 15 1 10 -262144
-1 -1 0 1;
#X obj 45 129 tgl 30 0 \$0-rep3-snd \$0-rep3-rcv 3 13 15 1 10 -262144
-1 -1 0 1;
#X obj 77 129 tgl 30 0 \$0-rep4-snd \$0-rep4-rcv 4 13 15 1 10 -262144
-1 -1 0 1;
#X text 4 67 keys w x c v;
#X obj 5 38 bng 30 250 50 0 \$0-b1-snd \$0-b1-rcv 1 13 15 1 8 -262144
-1 -1;
#X obj 6 4 bng 30 250 50 0 \$0-b2-snd \$0-b2-rcv 2 13 15 1 8 -262144
-1 -1;
#X obj 40 4 bng 30 250 50 0 \$0-b3-snd \$0-b3-rcv 3 13 15 1 8 -262144
-1 -1;
#X obj 40 37 bng 30 250 50 0 \$0-b4-snd \$0-b4-rcv 4 13 15 1 8 -262144
-1 -1;
#X restore 11 12 pd Interface;
#N canvas 447 198 821 526 interfguts 0;
#X obj 14 39 keyname;
#X obj 14 64 pack f s;
#X obj 14 85 spigot;
#X obj 64 89 tgl 15 0 empty empty keyboard 0 -6 1 8 -241291 -1 -1 0
1;
#X obj 89 91 r \$0-getkeyb;
#X obj 14 136 route w x c v;
#X obj 145 11 dispatch \$0-b 1 4;
#X msg 14 168 1 bang;
#X msg 64 168 2 bang;
#X msg 113 168 3 bang;
#X msg 163 168 4 bang;
#X obj 64 198 s \$0-b-rcv;
#X obj 183 50 r \$0-b-snd;
#X msg 183 74 \$1 1 \, \$1 0;
#X obj 14 114 route 1;
#X msg 223 157 \$2 \$1;
#X obj 223 176 route 1;
#X obj 223 107 r \$0-s-snd;
#X msg 223 196 \$1 bang;
#X obj 223 239 r \$1-rep-snd;
#N canvas 0 50 558 296 antirebond 0;
#X obj 138 42 route 1 2 3 4;
#X obj 31 73 sel 0 1;
#X obj 85 144 1;
#X obj 31 143 del 100;
#X msg 40 98 stop;
#X obj 31 163 0;
#X obj 31 186 change;
#X msg 31 205 1 \$1;
#X obj 138 20 inlet;
#X obj 47 121 r \$0-antirebond;
#X obj 203 258 outlet;
#X obj 160 72 sel 0 1;
#X obj 214 143 1;
#X obj 160 142 del 100;
#X msg 169 97 stop;
#X obj 160 162 0;
#X obj 160 185 change;
#X obj 176 120 r \$0-antirebond;
#X obj 282 77 sel 0 1;
#X obj 336 148 1;
#X obj 282 147 del 100;
#X msg 291 102 stop;
#X obj 282 167 0;
#X obj 282 190 change;
#X obj 298 125 r \$0-antirebond;
#X obj 411 76 sel 0 1;
#X obj 465 147 1;
#X obj 411 146 del 100;
#X msg 420 101 stop;
#X obj 411 166 0;
#X obj 411 189 change;
#X obj 427 124 r \$0-antirebond;
#X msg 160 204 2 \$1;
#X msg 282 209 3 \$1;
#X msg 411 208 4 \$1;
#X connect 0 0 1 0;
#X connect 0 1 11 0;
#X connect 0 2 18 0;
#X connect 0 3 25 0;
#X connect 1 0 3 0;
#X connect 1 1 4 0;
#X connect 1 1 2 0;
#X connect 2 0 6 0;
#X connect 3 0 5 0;
#X connect 4 0 3 0;
#X connect 5 0 6 0;
#X connect 6 0 7 0;
#X connect 7 0 10 0;
#X connect 8 0 0 0;
#X connect 9 0 3 1;
#X connect 11 0 13 0;
#X connect 11 1 14 0;
#X connect 11 1 12 0;
#X connect 12 0 16 0;
#X connect 13 0 15 0;
#X connect 14 0 13 0;
#X connect 15 0 16 0;
#X connect 16 0 32 0;
#X connect 17 0 13 1;
#X connect 18 0 20 0;
#X connect 18 1 21 0;
#X connect 18 1 19 0;
#X connect 19 0 23 0;
#X connect 20 0 22 0;
#X connect 21 0 20 0;
#X connect 22 0 23 0;
#X connect 23 0 33 0;
#X connect 24 0 20 1;
#X connect 25 0 27 0;
#X connect 25 1 28 0;
#X connect 25 1 26 0;
#X connect 26 0 30 0;
#X connect 27 0 29 0;
#X connect 28 0 27 0;
#X connect 29 0 30 0;
#X connect 30 0 34 0;
#X connect 31 0 27 1;
#X connect 32 0 10 0;
#X connect 33 0 10 0;
#X connect 34 0 10 0;
#X restore 223 132 pd antirebond;
#X obj 148 299 s \$0-antirebond;
#X obj 107 328 s \$0-deb1time;
#X msg 94 248 40;
#X obj 85 361 s \$0-deb0time;
#X obj 96 228 loadbang;
#X msg 110 306 10;
#X obj 223 216 s \$0-b-rcv;
#X obj 12 11 dispatch \$0-rep 1 4;
#X obj 223 262 s \$0-rep-rcv;
#X connect 0 0 1 0;
#X connect 0 1 1 1;
#X connect 1 0 2 0;
#X connect 2 0 14 0;
#X connect 3 0 2 1;
#X connect 4 0 3 0;
#X connect 5 0 7 0;
#X connect 5 1 8 0;
#X connect 5 2 9 0;
#X connect 5 3 10 0;
#X connect 7 0 11 0;
#X connect 8 0 11 0;
#X connect 9 0 11 0;
#X connect 10 0 11 0;
#X connect 12 0 13 0;
#X connect 14 0 5 0;
#X connect 15 0 16 0;
#X connect 16 0 18 0;
#X connect 17 0 20 0;
#X connect 18 0 27 0;
#X connect 19 0 29 0;
#X connect 20 0 15 0;
#X connect 23 0 21 0;
#X connect 23 0 24 0;
#X connect 25 0 23 0;
#X connect 25 0 26 0;
#X connect 26 0 22 0;
#X restore 11 31 pd interfguts;
#X obj 12 80 tgl 15 0 \$0-getkeyb \$0-getkeyb-rcv keyboard 0 -6 1 8
-241291 -1 -1 0 1;
#X obj 311 55 dollarg;
#X obj 311 36 bng 15 250 50 0 empty empty empty 17 7 0 10 -262144 -1
-1;
#X obj 340 32 loadbang;
#X obj 49 116 mknob 25 100 0 1 0 1 \$0-volgran-snd \$0-volgran-rcv
volgran -2 -6 193 10 -258699 -1 -1 9900 1;
#X obj 311 79 Common \$0 \$1 rep;
#X obj 111 50 Bank \$0 1 ToyPiano 8 1;
#X obj 112 75 Bank \$0 2 SaxB 8 1;
#X obj 112 98 Bank \$0 3 Sax 8 1;
#X obj 111 123 Bank \$0 4 PianoDenis 8 1;
#X obj 161 165 Voix2 \$0 1 1;
#X text 118 5 args: \$0 numHP axl_channel num_mode;
#X obj 341 149 == \$4;
#X obj 341 175 s \$0-onoff;
#X obj 340 125 r Mode\$2;
#X obj 203 291 r axl\$3-x;
#X obj 371 281 r axl\$3-y;
#X obj 162 185 Voix2 \$0 2 2;
#X obj 162 206 Voix2 \$0 3 3;
#X obj 162 226 Voix2 \$0 4 4;
#X obj 205 326 maxlib/scale 0.2 0.5 0 1;
#X obj 370 312 maxlib/scale 0.2 0.5 0 1;
#X obj 206 349 clip 0 1;
#X obj 367 335 clip 0 1;
#X obj 202 376 hsl 128 15 0 1 0 0 empty empty empty -2 -8 0 10 -262144
-1 -1 12700 1;
#X obj 370 362 hsl 128 15 0 1 0 0 empty empty empty -2 -8 0 10 -262144
-1 -1 0 1;
#X obj 179 406 hsl 128 15 0 1 0 0 empty empty empty -2 -8 0 10 -262144
-1 -1 316 1;
#X obj 340 399 hsl 128 15 0 1 0 0 empty empty empty -2 -8 0 10 -262144
-1 -1 3800 1;
#X obj 339 453 change;
#X obj 312 483 b;
#X obj 242 492 clip 1 4;
#X obj 281 588 s \$0-keys;
#X msg 279 560 \$1 1;
#X obj 337 514 bng 15 250 50 0 empty empty empty 17 7 0 10 -262144
-1 -1;
#X obj 337 427 > 0.4;
#X floatatom 236 537 5 0 0 0 - - -, f 5;
#X obj 284 530 i;
#X obj 245 464 + 1;
#X obj 245 441 * 3.5;
#X connect 0 0 3 0;
#X connect 1 0 0 0;
#X connect 8 0 12 0;
#X connect 9 0 8 0;
#X connect 10 0 8 0;
#X connect 19 0 20 0;
#X connect 21 0 19 0;
#X connect 22 0 27 0;
#X connect 22 0 33 0;
#X connect 23 0 28 0;
#X connect 23 0 34 0;
#X connect 27 0 29 0;
#X connect 28 0 30 0;
#X connect 29 0 31 0;
#X connect 30 0 32 0;
#X connect 31 0 45 0;
#X connect 34 0 41 0;
#X connect 35 0 36 0;
#X connect 36 0 40 0;
#X connect 36 0 43 0;
#X connect 37 0 42 0;
#X connect 37 0 43 1;
#X connect 39 0 38 0;
#X connect 41 0 35 0;
#X connect 43 0 39 0;
#X connect 44 0 37 0;
#X connect 45 0 44 0;
