#N canvas 669 75 596 621 10;
#X obj 12 205 tgl 20 0 \$0-on-snd \$0-on-rcv empty 0 -6 0 8 -258699
-1 -1 1 1;
#X obj 11 185 r \$0-onoff;
#X obj 12 231 switch~;
#X obj 311 55 dollarg;
#X obj 311 36 bng 15 250 50 0 empty empty empty 17 7 0 10 -262144 -1
-1;
#X obj 340 32 loadbang;
#X obj 311 79 Common \$0 \$1 rep;
#X text 118 5 args: \$0 numHP axl_channel num_mode;
#X obj 341 149 == \$4;
#X obj 341 175 s \$0-onoff;
#X obj 161 253 rcvAxl \$0 \$3 4;
#X obj 111 50 Bank \$0 1 ToyPiano 8 1;
#X obj 112 75 Bank \$0 2 SaxB 8 1;
#X obj 112 98 Bank \$0 3 Sax 8 1;
#X obj 111 123 Bank \$0 4 PianoDenis 8 1;
#X obj 340 125 r Mode\$3;
#X obj 162 185 Voix2 \$0 2 2;
#X obj 161 165 Voix2 \$0 1 1;
#X obj 162 206 Voix2 \$0 3 3;
#X obj 162 226 Voix2 \$0 4 4;
#X connect 0 0 2 0;
#X connect 1 0 0 0;
#X connect 3 0 6 0;
#X connect 4 0 3 0;
#X connect 5 0 3 0;
#X connect 8 0 9 0;
#X connect 15 0 8 0;
