#N canvas 87 402 819 450 10;
#X declare -path ../;
#X obj 12 205 tgl 20 0 \$0-on-snd \$0-on-rcv empty 0 -6 0 8 -258699
-1 -1 0 1;
#X obj 11 185 r \$0-onoff;
#X obj 12 231 switch~;
#X obj 99 14 declare -path ../;
#X obj 312 27 dollarg;
#X obj 312 8 bng 15 250 50 0 empty empty empty 17 7 0 10 -262144 -1
-1;
#X obj 341 4 loadbang;
#X obj 312 51 Common \$0 \$1 rotob;
#X obj 439 45 == \$4;
#X obj 439 71 s \$0-onoff;
#X obj 130 85 Bank \$0 1 ChantVincent 16 1;
#X obj 131 110 Bank \$0 2 ChantNathalie 16 1;
#X obj 130 133 Bank \$0 3 ChantDenis 8 1;
#X obj 130 158 Bank \$0 4 ChantSakina 8 1;
#X obj 130 180 Bank \$0 5 ChantChristian 8 1;
#X obj 129 205 Bank \$0 6 ChantBarbara 8 1;
#X obj 440 21 r Mode\$3;
#X obj 180 267 rcvAxl \$0 \$3 6;
#X obj 324 120 Voix2 \$0 2 2;
#X obj 326 163 Voix2 \$0 4 4;
#X obj 323 100 Voix2 \$0 1 1;
#X obj 325 143 Voix2 \$0 3 3;
#X obj 327 183 Voix2 \$0 5 5;
#X obj 328 202 Voix2 \$0 6 6;
#X connect 0 0 2 0;
#X connect 1 0 0 0;
#X connect 4 0 7 0;
#X connect 5 0 4 0;
#X connect 6 0 4 0;
#X connect 8 0 9 0;
#X connect 16 0 8 0;
