#N canvas 257 338 830 530 10;
#X obj 12 205 tgl 20 0 \$0-on-snd \$0-on-rcv empty 0 -6 0 8 -258699
-1 -1 0 1;
#X obj 11 185 r \$0-onoff;
#X obj 12 116 mknob 25 100 0 1 0 1 \$0-vol-snd \$0-vol-rcv vol -2 -6
193 10 -258699 -1 -1 1790 1;
#X obj 12 231 switch~;
#N canvas 57 173 298 213 master 0;
#X obj 182 34 catch~ \$0-out;
#X obj 140 111 *~;
#X obj 14 22 catch~ \$0-parole_out;
#X obj 14 66 hip~ 800;
#X obj 24 43 catch~ \$0-parole_out2;
#X obj 175 91 pow 2;
#X obj 175 112 * 4;
#X obj 175 69 r \$0-vol-snd;
#X obj 111 176 out CP \$2;
#X obj 176 176 out CP \$3;
#X connect 0 0 1 0;
#X connect 1 0 8 0;
#X connect 1 0 9 0;
#X connect 2 0 3 0;
#X connect 3 0 1 0;
#X connect 4 0 3 0;
#X connect 5 0 6 0;
#X connect 6 0 1 1;
#X connect 7 0 5 0;
#X restore 11 50 pd master;
#N canvas 1 531 220 70 Interface 0;
#X obj 2 2 tgl 30 0 \$0-s1-snd \$0-s1-rcv I 13 15 1 10 -262144 -1 -1
0 1;
#X obj 34 2 tgl 30 0 \$0-s2-snd \$0-s2-rcv PO 7 15 1 10 -262144 -1
-1 0 1;
#X obj 66 2 tgl 30 0 \$0-s3-snd \$0-s3-rcv PO 7 15 1 10 -262144 -1
-1 0 1;
#X obj 98 2 tgl 30 0 \$0-s4-snd \$0-s4-rcv TAM 2 15 1 10 -262144 -1
-1 0 1;
#X obj 132 2 tgl 30 0 \$0-st-snd \$0-st-rcv hippopotame 1 15 1 8 -262131
-1 -1 0 1;
#X text 7 35 keyboard: w x c v b;
#X restore 11 12 pd Interface;
#N canvas 437 147 818 501 interfguts 0;
#X obj 59 42 keyname;
#X obj 59 67 pack f s;
#X msg 59 118 \$2 \$1;
#X obj 59 88 spigot;
#X obj 109 92 tgl 15 0 empty empty keyboard 0 -6 1 8 -241291 -1 -1
0 1;
#X obj 59 139 route w x c v b;
#X obj 174 171 s \$0-st-rcv;
#X obj 134 94 r \$0-getkeyb;
#X msg 28 171 1 \$1;
#X msg 64 171 2 \$1;
#X msg 100 171 3 \$1;
#X msg 136 171 4 \$1;
#X obj 84 209 s \$0-s-rcv;
#X obj 279 120 r \$1-s-snd;
#X obj 279 140 s \$0-s-rcv;
#X obj 287 56 r \$1-st-snd;
#X obj 287 76 s \$0-st-rcv;
#X text 528 524 8V=batterie pleine 5.4=dead...;
#X text 536 505 2.2 : plein;
#X obj 146 329 s \$0-antirebond;
#X obj 105 358 s \$0-deb1time;
#X msg 92 278 40;
#X obj 83 391 s \$0-deb0time;
#X obj 94 258 loadbang;
#X msg 108 336 10;
#X obj 57 14 dispatch \$0-s 1 5;
#X msg 395 100 5 \$1;
#X obj 395 131 s \$0-s-snd;
#X obj 395 74 r \$0-st-snd;
#X connect 0 0 1 0;
#X connect 0 1 1 1;
#X connect 1 0 3 0;
#X connect 2 0 5 0;
#X connect 3 0 2 0;
#X connect 4 0 3 1;
#X connect 5 0 8 0;
#X connect 5 1 9 0;
#X connect 5 2 10 0;
#X connect 5 3 11 0;
#X connect 5 4 6 0;
#X connect 7 0 4 0;
#X connect 8 0 12 0;
#X connect 9 0 12 0;
#X connect 10 0 12 0;
#X connect 11 0 12 0;
#X connect 13 0 14 0;
#X connect 15 0 16 0;
#X connect 21 0 19 0;
#X connect 21 0 22 0;
#X connect 21 0 24 0;
#X connect 23 0 21 0;
#X connect 24 0 20 0;
#X connect 26 0 27 0;
#X connect 28 0 26 0;
#X restore 11 31 pd interfguts;
#X obj 12 80 tgl 15 0 \$0-getkeyb \$0-getkeyb-rcv keyboard 0 -6 1 8
-241291 -1 -1 0 1;
#X obj 322 37 dollarg;
#X obj 322 18 bng 15 250 50 0 empty empty empty 17 7 0 10 -262144 -1
-1;
#X obj 351 14 loadbang;
#X obj 53 118 mknob 25 100 0 1 0 1 \$0-volgran-snd \$0-volgran-rcv
volgran -2 -6 193 10 -258699 -1 -1 9900 1;
#X obj 141 120 Bank \$0 2 CBBowNico 8 1.5;
#X obj 140 192 Bank \$0 5 TpChristian 8 1;
#X obj 136 217 Bank \$0 6 TbThierry 8 1;
#X obj 140 95 Bank \$0 1 BanjoSeb 8 1;
#X obj 139 143 Bank \$0 3 GtElecClairSeb 8 1;
#X obj 140 168 Bank \$0 4 GtElecCompSeb 8 1;
#X obj 322 61 Common \$0 \$1 s;
#X obj 440 41 == \$4;
#X obj 440 67 s \$0-onoff;
#X obj 441 17 r Mode\$2;
#X obj 341 104 Voix2 \$0 1 1;
#X obj 342 124 Voix2 \$0 2 2;
#X obj 434 104 Voix2 \$0 3 3;
#X obj 435 124 Voix2 \$0 4 4;
#X obj 341 147 Voix2 \$0 5 5;
#X obj 436 146 Voix2 \$0 6 6;
#X obj 349 197 r axl\$3-x;
#X obj 517 187 r axl\$3-y;
#X obj 516 218 maxlib/scale 0.2 0.5 0 1;
#X obj 352 255 clip 0 1;
#X obj 513 241 clip 0 1;
#X obj 348 282 hsl 128 15 0 1 0 0 empty empty empty -2 -8 0 10 -262144
-1 -1 0 1;
#X obj 516 268 hsl 128 15 0 1 0 0 empty empty empty -2 -8 0 10 -262144
-1 -1 0 1;
#X obj 325 312 hsl 128 15 0 1 0 0 empty empty empty -2 -8 0 10 -262144
-1 -1 0 1;
#X obj 486 305 hsl 128 15 0 1 0 0 empty empty empty -2 -8 0 10 -262144
-1 -1 0 1;
#X obj 485 359 change;
#X obj 458 389 b;
#X obj 427 494 s \$0-keys;
#X msg 425 466 \$1 1;
#X obj 483 420 bng 15 250 50 0 empty empty empty 17 7 0 10 -262144
-1 -1;
#X obj 483 333 > 0.4;
#X floatatom 382 443 5 0 0 0 - - -, f 5;
#X obj 430 436 i;
#X obj 391 370 + 1;
#X obj 351 232 maxlib/scale 0.2 0.5 0 1;
#X obj 360 342 * 5.5;
#X obj 388 398 clip 1 6;
#X connect 0 0 3 0;
#X connect 1 0 0 0;
#X connect 8 0 18 0;
#X connect 9 0 8 0;
#X connect 10 0 8 0;
#X connect 19 0 20 0;
#X connect 21 0 19 0;
#X connect 28 0 35 0;
#X connect 28 0 46 0;
#X connect 29 0 30 0;
#X connect 29 0 36 0;
#X connect 30 0 32 0;
#X connect 31 0 33 0;
#X connect 32 0 34 0;
#X connect 33 0 47 0;
#X connect 36 0 42 0;
#X connect 37 0 38 0;
#X connect 38 0 41 0;
#X connect 38 0 44 0;
#X connect 40 0 39 0;
#X connect 42 0 37 0;
#X connect 44 0 40 0;
#X connect 45 0 48 0;
#X connect 46 0 31 0;
#X connect 47 0 45 0;
#X connect 48 0 43 0;
#X connect 48 0 44 1;
