#N canvas 261 330 830 530 10;
#X obj 12 205 tgl 20 0 \$0-on-snd \$0-on-rcv empty 0 -6 0 8 -258699
-1 -1 0 1;
#X obj 11 185 r \$0-onoff;
#X obj 12 231 switch~;
#X obj 322 37 dollarg;
#X obj 322 18 bng 15 250 50 0 empty empty empty 17 7 0 10 -262144 -1
-1;
#X obj 351 14 loadbang;
#X obj 322 61 Common \$0 \$1 s;
#X obj 440 41 == \$4;
#X obj 440 67 s \$0-onoff;
#X obj 141 120 Bank \$0 2 CBBowNico 8 1.5;
#X obj 140 192 Bank \$0 5 TpChristian 8 1;
#X obj 136 217 Bank \$0 6 TbThierry 8 1;
#X obj 140 95 Bank \$0 1 BanjoSeb 8 1;
#X obj 139 143 Bank \$0 3 GtElecClairSeb 8 1;
#X obj 140 168 Bank \$0 4 GtElecCompSeb 8 1;
#X obj 441 17 r Mode\$3;
#X obj 190 277 rcvAxl \$0 \$3 6;
#X obj 341 104 Voix2 \$0 1 1;
#X obj 342 124 Voix2 \$0 2 2;
#X obj 434 104 Voix2 \$0 3 3;
#X obj 435 124 Voix2 \$0 4 4;
#X obj 341 147 Voix2 \$0 5 5;
#X obj 436 146 Voix2 \$0 6 6;
#X connect 0 0 2 0;
#X connect 1 0 0 0;
#X connect 3 0 6 0;
#X connect 4 0 3 0;
#X connect 5 0 3 0;
#X connect 7 0 8 0;
#X connect 15 0 7 0;
