#N canvas 901 479 363 287 10;
#X obj 15 1 catch~ \$1-out\$2;
#X obj 13 243 dac~ \$2;
#X obj 91 219 prvu~;
#X obj 53 175 limiter~;
#X obj 14 149 *~;
#X obj 28 125 r~ \$1-Mastersig;
#X obj 13 176 z~ 64;
#X obj 12 198 *~;
#X obj 91 239 s \$1-vu\$2;
#X obj 119 1 inlet~;
#X obj 129 136 loadbang;
#X msg 129 159 t_metro 80 \, t_hold 80 \, t_release 80;
#X obj 25 94 l AudioDelayStop \$1;
#X obj 15 36 hip~ 20;
#X connect 0 0 13 0;
#X connect 2 0 8 0;
#X connect 3 0 7 1;
#X connect 4 0 6 0;
#X connect 4 0 3 0;
#X connect 5 0 4 1;
#X connect 6 0 7 0;
#X connect 7 0 2 0;
#X connect 7 0 1 0;
#X connect 9 0 13 0;
#X connect 10 0 11 0;
#X connect 11 0 2 0;
#X connect 13 0 4 0;
