#N canvas 859 213 398 406 10;
#X obj 32 11 catch~ \$1-out\$2;
#X obj 30 281 dac~ \$2;
#X obj 80 281 prvu~;
#X obj 72 226 limiter~;
#X obj 33 200 *~;
#X obj 47 176 r~ \$1-Mastersig;
#X obj 32 227 z~ 64;
#X obj 31 249 *~;
#X obj 80 301 s \$1-vu\$2;
#X obj 320 66 r \$1-hpf;
#X obj 195 84 outlet~;
#X obj 204 128 l AudioDelayStop \$1;
#X obj 133 212 loadbang;
#X msg 133 235 t_metro 80 \, t_hold 80 \, t_release 80;
#X obj 231 25 r \$1-xf;
#X obj 33 43 hp4_butt~ 120;
#X obj 194 59 lp4_butt~ 120;
#X obj 268 95 l lp2_cheb~ 22000 50;
#X obj 52 119 hip~ 5000;
#X obj 52 141 *~ 2;
#X obj 33 95 hp2_butt~ 400;
#X connect 0 0 15 0;
#X connect 0 0 16 0;
#X connect 2 0 8 0;
#X connect 3 0 7 1;
#X connect 4 0 6 0;
#X connect 4 0 3 0;
#X connect 5 0 4 1;
#X connect 6 0 7 0;
#X connect 7 0 1 0;
#X connect 7 0 2 0;
#X connect 9 0 17 1;
#X connect 12 0 13 0;
#X connect 13 0 2 0;
#X connect 14 0 16 1;
#X connect 15 0 18 0;
#X connect 15 0 20 0;
#X connect 16 0 10 0;
#X connect 18 0 19 0;
#X connect 19 0 4 0;
#X connect 20 0 4 0;
