#N canvas 152 54 545 497 10;
#X obj 103 321 vsl 15 119 0 2 0 1 \$1-Master-snd \$1-Master-rcv empty
0 -9 0 10 -258113 -1 -1 4500 1;
#X obj 217 321 vu 15 120 \$1-vu6 empty -1 -8 0 10 -66577 -1 0 0;
#X obj 179 321 vu 15 120 \$1-vu4 empty -1 -8 0 10 -66577 -1 0 0;
#X obj 160 321 vu 15 120 \$1-vu3 empty -1 -8 0 10 -66577 -1 0 0;
#X obj 141 321 vu 15 120 \$1-vu2 empty -1 -8 0 10 -66577 -1 0 0;
#X obj 122 321 vu 15 120 \$1-vu1 empty -1 -8 0 10 -66577 -1 0 0;
#X obj 198 321 vu 15 120 \$1-vu5 empty -1 -8 0 10 -66577 -1 0 0;
#X obj 335 123 pow 3;
#X msg 333 143 \$1 10;
#X obj 334 163 line~;
#X obj 338 79 s \$0-tapestop-snd;
#X obj 338 54 tgl 15 0 empty empty empty 17 7 0 10 -262144 -1 -1 0
1;
#X obj 327 267 s \$0-hpf;
#X obj 327 244 mtof;
#X obj 330 224 hsl 128 15 0 130 0 0 empty empty empty -2 -8 0 10 -262144
-1 -1 0 1;
#X floatatom 407 263 5 0 0 0 - - -;
#X obj -5 18 Mout \$1 1;
#X obj 333 192 s~ \$1-Mastersig;
#X obj 255 321 vu 15 120 \$1-vu8 empty -1 -8 0 10 -66577 -1 1 0;
#X obj 236 321 vu 15 120 \$1-vu7 empty -1 -8 0 10 -66577 -1 0 0;
#X obj 93 119 *~;
#X obj 310 321 vsl 15 119 0 1.5 0 1 \$1-Subs-snd \$1-Subs-rcv subs
-7 -9 0 12 -4160 -257985 -1 4200 1;
#X obj 335 102 r \$1-Master-snd;
#X obj 178 122 pow 3;
#X obj 177 162 line~;
#X obj 178 101 r \$1-Subs-snd;
#X msg 176 142 \$1 30;
#X obj 93 186 MoutS \$1 8;
#X obj 58 16 Mout \$1 2;
#X obj 124 17 Mout \$1 3;
#X obj 187 18 Mout \$1 4;
#X obj 258 16 Mout \$1 5;
#X obj 320 15 Mout \$1 6;
#X obj 382 16 Mout \$1 7;
#X connect 7 0 8 0;
#X connect 8 0 9 0;
#X connect 9 0 17 0;
#X connect 11 0 10 0;
#X connect 13 0 12 0;
#X connect 14 0 13 0;
#X connect 14 0 15 0;
#X connect 16 0 20 0;
#X connect 20 0 27 0;
#X connect 22 0 7 0;
#X connect 23 0 26 0;
#X connect 24 0 20 1;
#X connect 25 0 23 0;
#X connect 26 0 24 0;
#X connect 28 0 20 0;
#X connect 29 0 20 0;
#X connect 30 0 20 0;
#X connect 31 0 20 0;
#X connect 32 0 20 0;
#X connect 33 0 20 0;
#X coords 0 -1 1 1 230 145 1 100 300;
