#N canvas 737 312 271 269 10;
#X obj 27 154 throw~ \$1-out\$2;
#X obj 28 45 inlet~;
#X obj 93 44 inlet;
#X obj 93 90 makesymbol \$1-out%s;
#X msg 93 114 set \$1;
#X connect 1 0 0 0;
#X connect 2 0 3 0;
#X connect 3 0 4 0;
#X connect 4 0 0 0;
