#N canvas 201 205 494 478 10;
#X obj 123 77 list split 1;
#X obj 157 101 t a a;
#X obj 184 123 list length;
#X obj 157 150 list prepend;
#X obj 157 171 list prepend 0;
#X obj 123 31 inlet dollarg;
#X obj 112 227 table \$1-outtable 20;
#X obj 157 191 s \$1-outtable;
#X text 34 9 Common \$0 \$1 interfName;
#X obj 330 81 r \$2-release;
#X obj 330 108 s \$1-release;
#X obj 328 148 r \$2-maxTime;
#X obj 328 177 s \$1-maxTime;
#X obj 125 289 r Gammes;
#X obj 125 313 route 0 1;
#X msg 125 334 -1 \$1;
#X obj 125 357 s \$1-Gammes;
#X obj 328 307 s \$1-keys;
#X obj 328 281 r \$1-\$3-snd;
#X obj 329 210 r \$2-tempoMs;
#X obj 329 239 s \$1-tempoMs;
#X obj 328 381 apsym \$1-Props name;
#X obj 328 359 symbol \$3;
#X obj 328 336 loadbang;
#X msg 223 41 1 2 3 4 5 6 7 7 7 7;
#X msg 219 64 7 6 5 4 1 3 2 1 1 1;
#X msg 222 20 3 4 5 2 6 1 7 7 7;
#X connect 0 1 1 0;
#X connect 1 0 3 0;
#X connect 1 1 2 0;
#X connect 2 0 3 1;
#X connect 3 0 4 0;
#X connect 4 0 7 0;
#X connect 5 0 0 0;
#X connect 9 0 10 0;
#X connect 11 0 12 0;
#X connect 13 0 14 0;
#X connect 14 0 15 0;
#X connect 15 0 16 0;
#X connect 18 0 17 0;
#X connect 19 0 20 0;
#X connect 22 0 21 0;
#X connect 23 0 22 0;
#X connect 24 0 1 0;
#X connect 25 0 1 0;
#X connect 26 0 1 0;
