#N canvas 381 149 507 567 10;
#X obj 201 208 gamme 90 40 0 0 0 0 1 0 0 0 0 0 0 0;
#X obj 129 225 route 0;
#X msg 126 165 setb \$1;
#X obj 201 99 f;
#X floatatom 243 69 5 1 13 0 - - -;
#X obj 195 67 + 1;
#X obj 159 460 outlet~;
#X obj 196 26 bng 15 250 50 0 empty empty empty 17 7 0 10 -262144 -1
-1;
#X obj 195 45 random \$3;
#X obj 201 163 t f f;
#X obj 201 254 -;
#X obj 272 5 r \$1-keys;
#X obj 272 46 sel 1;
#X obj 307 95 shuffle 1 \$3 0.25;
#X obj 314 67 bng 15 250 50 0 empty empty empty 17 7 0 10 -262144 -1
-1;
#X floatatom 350 175 5 0 0 0 - - -;
#X floatatom 331 231 5 0 0 0 - - -;
#X obj 67 34 hradio 15 1 0 8 empty empty empty 0 -8 0 10 -262144 -1
-1 0;
#X floatatom 161 284 5 0 0 0 - - -;
#X msg 201 186 round \$1 1000;
#X obj 122 87 r \$1-Gammes;
#X obj 122 109 route \$4 -1;
#X obj 201 274 t b f;
#X obj 201 328 pack f f f;
#X obj 201 299 i;
#X obj 239 297 + 1;
#X obj 201 351 s \$0-play;
#X obj 201 120 t f f;
#X obj 272 25 route \$2;
#X text 71 5 Percu \$0 id num;
#X obj 201 142 tabread \$1-\$2-pitchs;
#X obj 151 396 subpercu \$0 0 \$1-\$2;
#X obj 164 416 subpercu \$0 1 \$1-\$2;
#X connect 0 0 10 0;
#X connect 0 0 18 0;
#X connect 2 0 0 0;
#X connect 3 0 27 0;
#X connect 5 0 3 0;
#X connect 7 0 8 0;
#X connect 8 0 5 0;
#X connect 8 0 4 0;
#X connect 9 0 19 0;
#X connect 9 1 10 1;
#X connect 10 0 22 0;
#X connect 11 0 28 0;
#X connect 12 0 13 0;
#X connect 13 0 3 0;
#X connect 14 0 13 0;
#X connect 17 0 5 0;
#X connect 19 0 0 0;
#X connect 20 0 21 0;
#X connect 21 0 2 0;
#X connect 21 1 2 0;
#X connect 22 0 24 0;
#X connect 22 1 23 1;
#X connect 23 0 26 0;
#X connect 24 0 25 0;
#X connect 24 0 23 0;
#X connect 25 0 24 1;
#X connect 27 0 30 0;
#X connect 27 1 23 2;
#X connect 28 0 12 0;
#X connect 30 0 9 0;
#X connect 30 0 15 0;
#X connect 31 0 6 0;
#X connect 32 0 6 0;
