#N canvas 234 24 542 684 10;
#X obj 84 567 tabread4~;
#X obj 83 534 line~;
#X msg 231 323 set \$1;
#X obj 110 315 * 44.1;
#X obj 155 294 mtof;
#X obj 155 314 / 8.1758;
#X obj 84 598 *~;
#X obj 83 145 f;
#X text 27 -37 sub \$0 subID smp\$0;
#X obj 83 251 unpack f f f;
#X obj 110 363 +;
#X obj 83 395 pack f f f;
#X obj 83 291 t f f;
#X obj 110 342 *;
#X msg 83 507 \$3 \, \$2 \$1;
#X obj 83 420 t b a;
#X obj 83 471 list;
#X obj 171 335 * 44.1;
#X obj 83 446 del 2;
#X msg 231 277 \$2 \$3;
#X obj 231 302 makesymbol \$3-%s-samp%s;
#X text 136 230 len pitch startpoint;
#X text 268 275 smpBank smpNum;
#X msg 83 231 \$5 \$1 \$4;
#X msg 405 271 \$6;
#X obj 83 189 t a a a;
#X text 223 10 subID pitch smpBank smpNum startpoint len vol out;
#X obj 83 10 unpack f f f f f f f f;
#X obj 83 165 pack f f f f f f f;
#X text 198 163 pitch smpBank smpNum startpoint len vol out;
#X msg 425 308 \$7;
#X obj 436 493 del 2;
#X obj 436 472 b;
#X obj 385 522 f;
#X obj 84 622 out CP 1;
#X obj 83 -14 r \$1-play2;
#X obj 83 125 sel 1 0;
#X obj 293 464 line~;
#X msg 318 415 0 100;
#X obj 249 414 pack 1 1;
#X msg 249 436 \$2 \$1;
#X obj 83 39 - \$2;
#X obj 83 97 mod 5;
#X obj 83 69 + 5;
#X connect 0 0 6 0;
#X connect 1 0 0 0;
#X connect 2 0 0 0;
#X connect 3 0 13 0;
#X connect 4 0 5 0;
#X connect 5 0 13 1;
#X connect 6 0 34 0;
#X connect 7 0 28 0;
#X connect 9 0 12 0;
#X connect 9 1 4 0;
#X connect 9 2 17 0;
#X connect 10 0 11 1;
#X connect 11 0 15 0;
#X connect 12 0 11 0;
#X connect 12 1 3 0;
#X connect 13 0 10 0;
#X connect 14 0 1 0;
#X connect 15 0 18 0;
#X connect 15 1 16 1;
#X connect 16 0 14 0;
#X connect 17 0 10 1;
#X connect 17 0 11 2;
#X connect 18 0 16 0;
#X connect 19 0 20 0;
#X connect 20 0 2 0;
#X connect 23 0 9 0;
#X connect 24 0 39 1;
#X connect 25 0 23 0;
#X connect 25 1 19 0;
#X connect 25 2 24 0;
#X connect 25 2 30 0;
#X connect 27 0 41 0;
#X connect 27 1 7 1;
#X connect 27 2 28 1;
#X connect 27 3 28 2;
#X connect 27 4 28 3;
#X connect 27 5 28 4;
#X connect 27 6 28 5;
#X connect 27 7 28 6;
#X connect 28 0 25 0;
#X connect 30 0 33 0;
#X connect 31 0 33 0;
#X connect 32 0 31 0;
#X connect 33 0 34 1;
#X connect 35 0 27 0;
#X connect 36 0 7 0;
#X connect 36 0 39 0;
#X connect 36 1 38 0;
#X connect 37 0 6 1;
#X connect 38 0 37 0;
#X connect 39 0 40 0;
#X connect 40 0 37 0;
#X connect 41 0 43 0;
#X connect 42 0 36 0;
#X connect 43 0 42 0;
