#N canvas 65 28 507 567 10;
#X obj 201 208 gamme 90 40 1 0 0 0 0 0 0 1 0 1 0 1;
#X obj 129 225 route 0;
#X msg 126 165 setb \$1;
#X obj 201 99 f;
#X floatatom 243 69 5 1 13 0 - - -;
#X obj 195 67 + 1;
#X obj 178 523 outlet~;
#X obj 196 26 bng 15 250 50 0 empty empty empty 17 7 0 10 -262144 -1
-1;
#X obj 195 45 random \$3;
#X obj 201 163 t f f;
#X obj 201 254 -;
#X obj 272 5 r \$1-keys;
#X obj 272 46 sel 1;
#X obj 358 64 random \$3;
#X obj 334 126 shuffle 1 \$3 0.25;
#X obj 341 98 bng 15 250 50 0 empty empty empty 17 7 0 10 -262144 -1
-1;
#X floatatom 350 175 5 0 0 0 - - -;
#X floatatom 331 231 5 0 0 0 - - -;
#X obj 147 12 hradio 15 1 0 8 empty empty empty 0 -8 0 10 -262144 -1
-1 0;
#X floatatom 161 284 5 0 0 0 - - -;
#X msg 201 186 round \$1 1000;
#X obj 122 87 r \$1-Gammes;
#X obj 122 109 route \$4 -1;
#X obj 201 274 t b f;
#X obj 201 328 pack f f f;
#X obj 201 299 i;
#X obj 239 297 + 1;
#X obj 201 351 s \$0-play;
#X obj 201 120 t f f;
#X obj 201 142 tabread \$1-\$2-pitchs;
#X obj 272 25 route \$2;
#X obj 151 396 subvox \$0 0 \$1-\$2;
#X text 1 29 Voix \$0 touch/bankID num;
#X obj 164 416 subvox \$0 1 \$1-\$2;
#X obj 177 436 subvox \$0 2 \$1-\$2;
#X obj 189 456 subvox \$0 3 \$1-\$2;
#X obj 200 477 subvox \$0 4 \$1-\$2;
#N canvas 14 350 343 416 chooseSmp 0;
#X obj 78 265 + 1;
#X obj 177 104 unpack f f;
#X text 197 85 num rnd/offset;
#X obj 79 307 + 1;
#X obj 78 226 / 1000;
#X obj 177 2 inlet rnd/offset;
#X msg 77 70 set \$1 \, 0;
#X obj 177 150 * 8;
#X obj 240 161 * 8;
#X obj 177 172 * 1000;
#X obj 79 285 mod 8;
#X obj 77 93 tabread;
#X obj 34 -4 inlet bank;
#X obj 34 338 pack f f;
#X obj 34 364 outlet bank num;
#X obj 34 19 t f b f;
#X obj 77 48 makesymbol \$1-%s-props;
#X obj 78 203 random 8000;
#X connect 0 0 10 0;
#X connect 1 0 7 0;
#X connect 1 1 8 0;
#X connect 3 0 13 1;
#X connect 4 0 0 0;
#X connect 5 0 1 0;
#X connect 6 0 11 0;
#X connect 7 0 9 0;
#X connect 8 0 0 1;
#X connect 9 0 17 1;
#X connect 10 0 3 0;
#X connect 11 0 7 1;
#X connect 11 0 8 1;
#X connect 11 0 10 1;
#X connect 12 0 15 0;
#X connect 13 0 14 0;
#X connect 15 0 13 0;
#X connect 15 1 17 0;
#X connect 15 2 16 0;
#X connect 16 0 6 0;
#X connect 17 0 4 0;
#X restore 378 290 pd chooseSmp;
#X obj 378 263 f \$3;
#X obj 378 319 unpack f f;
#X obj 378 237 bng 15 250 50 0 empty empty empty 17 7 0 10 -262144
-1 -1;
#X floatatom 378 355 5 0 0 0 - - -;
#X floatatom 435 357 5 0 0 0 - - -;
#X connect 0 0 10 0;
#X connect 0 0 19 0;
#X connect 2 0 0 0;
#X connect 3 0 28 0;
#X connect 5 0 3 0;
#X connect 7 0 8 0;
#X connect 8 0 5 0;
#X connect 8 0 4 0;
#X connect 9 0 20 0;
#X connect 9 1 10 1;
#X connect 10 0 23 0;
#X connect 11 0 30 0;
#X connect 12 0 14 0;
#X connect 14 0 3 0;
#X connect 15 0 14 0;
#X connect 18 0 5 0;
#X connect 20 0 0 0;
#X connect 21 0 22 0;
#X connect 22 0 2 0;
#X connect 22 1 2 0;
#X connect 23 0 25 0;
#X connect 23 1 24 1;
#X connect 24 0 27 0;
#X connect 25 0 26 0;
#X connect 25 0 24 0;
#X connect 26 0 25 1;
#X connect 28 0 29 0;
#X connect 28 1 24 2;
#X connect 29 0 9 0;
#X connect 29 0 16 0;
#X connect 30 0 12 0;
#X connect 31 0 6 0;
#X connect 33 0 6 0;
#X connect 34 0 6 0;
#X connect 35 0 6 0;
#X connect 36 0 6 0;
#X connect 37 0 39 0;
#X connect 38 0 37 0;
#X connect 39 0 41 0;
#X connect 39 1 42 0;
#X connect 40 0 38 0;
