#N canvas 44 24 1015 517 10;
#X text 51 29 Fruit2Module \$0 fruitname modnum;
#X msg 624 430 S\$1;
#X obj 624 408 tgl 15 0 empty empty SCALING 17 7 0 10 -258113 -1 -1
0 1;
#X msg 431 443 c 2 c \$1;
#X msg 431 419 20;
#X msg 461 420 1;
#X obj 631 111 tgl 15 0 empty empty empty 17 7 0 10 -262144 -1 -1 0
1;
#X obj 516 107 tgl 15 0 empty empty empty 17 7 0 10 -262144 -1 -1 0
1;
#X obj 572 110 tgl 15 0 empty empty empty 17 7 0 10 -262144 -1 -1 0
1;
#X floatatom 141 199 5 0 0 0 - - -;
#X obj 21 201 route 0 1 2 3 4;
#X floatatom 4 241 5 0 0 0 - - -;
#X floatatom 40 240 5 0 0 0 - - -;
#X floatatom 77 240 5 0 0 0 - - -;
#X floatatom 112 239 5 0 0 0 - - -;
#X floatatom 146 240 5 0 0 0 - - -;
#X obj 277 258 tgl 15 0 empty empty empty 17 7 0 10 -262144 -1 -1 0
1;
#X obj 224 261 tgl 15 0 empty empty empty 17 7 0 10 -262144 -1 -1 0
1;
#X obj 311 244 tgl 15 0 empty empty empty 17 7 0 10 -262144 -1 -1 0
1;
#X obj 361 247 tgl 15 0 empty empty empty 17 7 0 10 -262144 -1 -1 0
1;
#X obj 342 248 tgl 15 0 empty empty empty 17 7 0 10 -262144 -1 -1 0
1;
#X obj 382 249 tgl 15 0 empty empty empty 17 7 0 10 -262144 -1 -1 0
1;
#X obj 402 248 tgl 15 0 empty empty empty 17 7 0 10 -262144 -1 -1 0
1;
#X obj 75 55 FruitReceive \$2;
#X obj 527 415 FruitSend \$2;
#X msg 224 283 1000 \$1;
#X text 322 19 rec:1000 shift:1100;
#X msg 276 279 1100 \$1;
#X msg 323 345 1001 \$1;
#X msg 351 312 1002 \$1;
#X msg 406 272 1003 \$1;
#X msg 387 291 1004 \$1;
#X msg 6 329 0 \$1;
#X msg 51 329 1 \$1;
#X msg 102 329 2 \$1;
#X msg 153 327 3 \$1;
#X msg 198 329 4 \$1;
#X obj 577 73 r \$1-beatled;
#X obj 525 17 r \$1-c\$3-con-rcv;
#X obj 605 240 speedlim 20;
#X text 326 30 b1..4:1001..1004;
#X obj 75 129 spigot;
#X obj 108 106 r \$1-on-snd;
#X obj 75 151 route A s t2 present;
#X obj 259 391 s \$1-c\$3-con-snd;
#X obj 582 365 spigot;
#X obj 493 204 tgl 15 0 empty empty empty 17 7 0 10 -262144 -1 -1 1
1;
#X msg 121 129 1;
#X obj 493 178 route present;
#X obj 525 38 route 2000 2001 1000 1001 1002 1003 1004;
#X obj 716 111 tgl 15 0 empty empty empty 17 7 0 10 -262144 -1 -1 0
1;
#X obj 692 112 tgl 15 0 empty empty empty 17 7 0 10 -262144 -1 -1 0
1;
#X obj 783 111 tgl 15 0 empty empty empty 17 7 0 10 -262144 -1 -1 0
1;
#X obj 361 72 route 0 1 2 3 4;
#N canvas 256 169 475 584 numeric 0;
#X obj 183 14 inlet;
#X obj 245 363 outlet;
#X obj 183 117 unwonk f;
#X obj 272 236 l;
#X obj 183 168 moses 100;
#X obj 245 191 - 100;
#X obj 245 214 t f b;
#X obj 272 259 unwonk f f;
#X obj 272 282 * 256;
#X obj 272 305 +;
#X obj 245 338 pack f f;
#X obj 183 36 route list;
#X obj 245 168 moses 150;
#X obj 274 36 outlet;
#X obj 122 460 outlet;
#X obj 60 238 unwonk f;
#X obj 149 379 l;
#X obj 122 357 t f b;
#X obj 122 435 pack f f;
#X obj 60 311 moses 1;
#X obj 122 311 moses 10;
#X obj 122 334 - 1;
#X obj 149 402 unwonk f;
#X connect 0 0 11 0;
#X connect 2 0 4 0;
#X connect 2 1 3 1;
#X connect 3 0 7 0;
#X connect 4 1 12 0;
#X connect 5 0 6 0;
#X connect 6 0 10 0;
#X connect 6 1 3 0;
#X connect 7 0 8 0;
#X connect 7 1 9 1;
#X connect 7 2 2 0;
#X connect 8 0 9 0;
#X connect 9 0 10 1;
#X connect 10 0 1 0;
#X connect 11 0 2 0;
#X connect 11 0 15 0;
#X connect 11 1 13 0;
#X connect 12 0 5 0;
#X connect 15 0 19 0;
#X connect 15 1 16 1;
#X connect 16 0 22 0;
#X connect 17 0 18 0;
#X connect 17 1 16 0;
#X connect 18 0 14 0;
#X connect 19 1 20 0;
#X connect 20 0 21 0;
#X connect 21 0 17 0;
#X connect 22 0 18 1;
#X connect 22 1 15 0;
#X restore 275 50 pd numeric;
#X obj 275 75 route 0;
#X obj 327 221 change -1;
#X obj 275 96 swap 255;
#X obj 276 116 -;
#X obj 327 180 & 1;
#X obj 328 199 != 0;
#X obj 360 198 change -1;
#X obj 361 176 != 0;
#X obj 360 157 & 2;
#X obj 393 176 change -1;
#X obj 394 154 != 0;
#X obj 425 155 change -1;
#X obj 426 133 != 0;
#X obj 393 135 & 4;
#X obj 425 114 & 8;
#X obj 204 214 change -1;
#X obj 205 192 != 0;
#X obj 204 173 & 16;
#X obj 266 214 change -1;
#X obj 267 192 != 0;
#X obj 266 173 & 32;
#X msg 488 330 c 4 c \$1;
#X obj -1 307 / 16383;
#X obj 51 307 / 16383;
#X obj 102 307 / 16383;
#X obj 153 305 / 16383;
#X obj 198 307 / 16383;
#X obj 516 375 spigot;
#N canvas 0 0 449 332 binary 0;
#X obj 157 35 inlet bit val;
#X obj 157 83 unpack f f;
#X obj 157 149 demux;
#X obj 157 105 swap 1;
#X obj 157 128 <<;
#X obj 157 229 &;
#X obj 157 185 swap 255;
#X obj 157 205 -;
#X obj 223 230 |;
#X obj 188 261 f;
#X obj 188 290 outlet;
#X connect 0 0 1 0;
#X connect 1 0 3 0;
#X connect 1 1 2 1;
#X connect 2 0 6 0;
#X connect 2 1 8 0;
#X connect 3 0 4 0;
#X connect 3 1 4 1;
#X connect 4 0 2 0;
#X connect 5 0 9 0;
#X connect 6 0 7 0;
#X connect 6 1 7 1;
#X connect 7 0 5 0;
#X connect 8 0 9 0;
#X connect 9 0 5 1;
#X connect 9 0 8 1;
#X connect 9 0 10 0;
#X restore 631 185 pd binary;
#X msg 572 133 6 \$1;
#X obj 755 110 tgl 15 0 empty empty empty 17 7 0 10 -262144 -1 -1 0
1;
#X msg 524 131 5 \$1;
#X msg 639 133 4 \$1;
#X msg 681 135 0 \$1;
#X msg 717 134 1 \$1;
#X msg 753 134 2 \$1;
#X msg 788 133 3 \$1;
#X obj 766 172 route 0 1 2 3 4;
#X floatatom 700 212 5 0 0 0 - - -;
#X obj 717 379 * 16383;
#X obj 716 418 speedlim 20;
#X obj 715 398 i;
#X obj 835 151 print;
#X obj 717 358 f;
#X obj 771 331 * 16383;
#X obj 770 370 speedlim 20;
#X obj 769 350 i;
#X obj 771 310 f;
#X msg 715 443 c 100 i \$1;
#X msg 767 395 c 101 i \$1;
#X obj 823 284 * 16383;
#X obj 822 323 speedlim 20;
#X obj 821 303 i;
#X obj 823 263 f;
#X obj 877 235 * 16383;
#X obj 876 274 speedlim 20;
#X obj 875 254 i;
#X obj 877 214 f;
#X msg 821 348 c 102 i \$1;
#X msg 872 299 c 103 i \$1;
#X obj 931 178 * 16383;
#X obj 930 217 speedlim 20;
#X obj 929 197 i;
#X obj 931 157 f;
#X msg 925 242 c 104 i \$1;
#X obj 777 470 t a;
#X obj 672 296 b;
#X connect 1 0 24 1;
#X connect 2 0 1 0;
#X connect 3 0 24 0;
#X connect 4 0 3 0;
#X connect 5 0 3 0;
#X connect 6 0 87 0;
#X connect 7 0 86 0;
#X connect 8 0 84 0;
#X connect 10 0 11 0;
#X connect 10 1 12 0;
#X connect 10 2 13 0;
#X connect 10 3 14 0;
#X connect 10 4 15 0;
#X connect 11 0 77 0;
#X connect 12 0 78 0;
#X connect 13 0 79 0;
#X connect 14 0 80 0;
#X connect 15 0 81 0;
#X connect 16 0 27 0;
#X connect 16 0 121 0;
#X connect 17 0 25 0;
#X connect 19 0 29 0;
#X connect 20 0 28 0;
#X connect 21 0 31 0;
#X connect 22 0 30 0;
#X connect 23 0 41 0;
#X connect 23 0 48 0;
#X connect 25 0 44 0;
#X connect 27 0 44 0;
#X connect 28 0 44 0;
#X connect 29 0 44 0;
#X connect 30 0 44 0;
#X connect 31 0 44 0;
#X connect 32 0 44 0;
#X connect 33 0 44 0;
#X connect 34 0 44 0;
#X connect 35 0 44 0;
#X connect 36 0 44 0;
#X connect 37 0 8 0;
#X connect 38 0 49 0;
#X connect 39 0 76 0;
#X connect 41 0 43 0;
#X connect 42 0 41 1;
#X connect 43 2 9 0;
#X connect 43 4 54 0;
#X connect 45 0 24 1;
#X connect 46 0 45 1;
#X connect 46 0 82 1;
#X connect 47 0 41 1;
#X connect 48 0 46 0;
#X connect 49 0 7 0;
#X connect 49 1 8 0;
#X connect 49 2 6 0;
#X connect 49 3 51 0;
#X connect 49 4 50 0;
#X connect 49 5 85 0;
#X connect 49 6 52 0;
#X connect 49 7 92 0;
#X connect 50 0 89 0;
#X connect 51 0 88 0;
#X connect 52 0 91 0;
#X connect 54 0 55 0;
#X connect 54 1 53 0;
#X connect 54 1 10 0;
#X connect 55 0 57 0;
#X connect 56 0 20 0;
#X connect 57 0 58 0;
#X connect 57 1 58 1;
#X connect 58 0 59 0;
#X connect 58 0 63 0;
#X connect 58 0 68 0;
#X connect 58 0 69 0;
#X connect 58 0 72 0;
#X connect 58 0 75 0;
#X connect 59 0 60 0;
#X connect 60 0 56 0;
#X connect 61 0 19 0;
#X connect 62 0 61 0;
#X connect 63 0 62 0;
#X connect 64 0 21 0;
#X connect 65 0 64 0;
#X connect 66 0 22 0;
#X connect 67 0 66 0;
#X connect 68 0 65 0;
#X connect 69 0 67 0;
#X connect 70 0 17 0;
#X connect 71 0 70 0;
#X connect 72 0 71 0;
#X connect 73 0 16 0;
#X connect 74 0 73 0;
#X connect 75 0 74 0;
#X connect 76 0 82 0;
#X connect 77 0 32 0;
#X connect 78 0 33 0;
#X connect 79 0 34 0;
#X connect 80 0 35 0;
#X connect 81 0 36 0;
#X connect 82 0 24 0;
#X connect 83 0 39 0;
#X connect 84 0 83 0;
#X connect 85 0 90 0;
#X connect 86 0 83 0;
#X connect 87 0 83 0;
#X connect 88 0 83 0;
#X connect 89 0 83 0;
#X connect 90 0 83 0;
#X connect 91 0 83 0;
#X connect 92 0 98 1;
#X connect 92 1 102 1;
#X connect 92 2 108 1;
#X connect 92 3 112 1;
#X connect 92 4 118 1;
#X connect 94 0 96 0;
#X connect 95 0 103 0;
#X connect 96 0 95 0;
#X connect 98 0 94 0;
#X connect 99 0 101 0;
#X connect 100 0 104 0;
#X connect 101 0 100 0;
#X connect 102 0 99 0;
#X connect 103 0 120 0;
#X connect 104 0 120 0;
#X connect 105 0 107 0;
#X connect 106 0 113 0;
#X connect 107 0 106 0;
#X connect 108 0 105 0;
#X connect 109 0 111 0;
#X connect 110 0 114 0;
#X connect 111 0 110 0;
#X connect 112 0 109 0;
#X connect 113 0 120 0;
#X connect 114 0 120 0;
#X connect 115 0 117 0;
#X connect 116 0 119 0;
#X connect 117 0 116 0;
#X connect 118 0 115 0;
#X connect 119 0 120 0;
#X connect 121 0 98 0;
#X connect 121 0 102 0;
#X connect 121 0 108 0;
#X connect 121 0 112 0;
#X connect 121 0 118 0;
