#N canvas 181 306 525 496 10;
#X obj 15 180 tgl 20 1 \$0-on-snd \$0-on-rcv empty 0 -6 0 8 -258699
-1 -1 1 1;
#X obj 14 160 r \$0-onoff;
#X obj 12 116 mknob 25 100 0 1 0 1 \$0-vol-snd \$0-vol-rcv vol -2 -6
193 10 -258699 -1 -1 0 1;
#X obj 15 206 switch~;
#N canvas 419 467 298 213 master 0;
#X obj 123 39 catch~ \$0-out;
#X obj 138 105 *~;
#X obj 175 91 pow 2;
#X obj 175 112 * 4;
#X obj 175 69 r \$0-vol-snd;
#X obj 122 70 hip~ 50;
#X obj 91 156 out CP \$2;
#X obj 156 156 out CP \$3;
#X connect 0 0 5 0;
#X connect 1 0 6 0;
#X connect 1 0 7 0;
#X connect 2 0 3 0;
#X connect 3 0 1 1;
#X connect 4 0 2 0;
#X connect 5 0 1 0;
#X restore 11 50 pd master;
#N canvas 1213 296 126 154 Interface 0;
#X obj 3 2 cnv 15 120 120 empty empty Myosotis 20 12 2 14 -225271 -66577
0;
#X obj 50 40 tgl 30 0 \$0-myoso3-snd \$0-myoso3-rcv 3 13 15 1 10 -262131
-1 -1 0 1;
#X obj 83 40 tgl 30 0 \$0-myoso4-snd \$0-myoso4-rcv 4 13 15 1 10 -262131
-1 -1 0 1;
#X obj 83 73 tgl 30 0 \$0-myoso5-snd \$0-myoso5-rcv 5 13 15 1 10 -262131
-1 -1 0 1;
#X obj 17 40 tgl 30 0 \$0-myoso2-snd \$0-myoso2-rcv 2 13 15 1 10 -262131
-1 -1 0 1;
#X obj 50 73 tgl 30 0 \$0-myoso0-snd \$0-myoso0-rcv 0 13 15 1 10 -228992
-1 -1 0 1;
#X obj 17 73 tgl 30 0 \$0-myoso1-snd \$0-myoso1-rcv 1 13 15 1 10 -262131
-1 -1 0 1;
#X text 3 124 keys w x c v b;
#X text 63 135 n;
#X restore 11 12 pd Interface;
#N canvas 114 260 434 420 interfguts 0;
#X obj 4 38 keyname;
#X obj 4 63 pack f s;
#X obj 4 84 spigot;
#X obj 54 88 tgl 15 0 empty empty keyboard 0 -6 1 8 -241291 -1 -1 0
1;
#X obj 79 90 r \$0-getkeyb;
#X obj 4 143 route w x c v b n;
#X obj 120 37 r \$1-myoso-snd;
#X obj 120 56 s \$0-myoso-rcv;
#X msg 4 105 \$2 \$1;
#X msg -37 178 1 \$1;
#X msg -3 178 2 \$1;
#X msg 33 178 3 \$1;
#X msg 68 178 4 \$1;
#X msg 104 178 5 \$1;
#X msg 141 178 0 \$1;
#X obj 50 215 s \$0-myoso-rcv;
#X obj 83 350 s \$0-deb1time;
#X obj -8 350 s \$0-deb0time;
#X obj 46 316 init 20;
#X obj 42 295 bng 15 250 50 0 empty empty empty 17 7 0 10 -262144 -1
-1;
#X obj -55 13 dispatch \$0-myoso 0 5;
#X connect 0 0 1 0;
#X connect 0 1 1 1;
#X connect 1 0 2 0;
#X connect 2 0 8 0;
#X connect 3 0 2 1;
#X connect 4 0 3 0;
#X connect 5 0 9 0;
#X connect 5 1 10 0;
#X connect 5 2 11 0;
#X connect 5 3 12 0;
#X connect 5 4 13 0;
#X connect 5 5 14 0;
#X connect 6 0 7 0;
#X connect 8 0 5 0;
#X connect 9 0 15 0;
#X connect 10 0 15 0;
#X connect 11 0 15 0;
#X connect 12 0 15 0;
#X connect 13 0 15 0;
#X connect 14 0 15 0;
#X connect 18 0 17 0;
#X connect 18 0 16 0;
#X connect 19 0 18 0;
#X restore 11 31 pd interfguts;
#X obj 12 80 tgl 15 0 \$0-getkeyb \$0-getkeyb-rcv keyboard 0 -6 1 8
-241291 -1 -1 0 1;
#X obj 154 39 dollarg;
#X obj 154 20 bng 15 250 50 0 empty empty empty 17 7 0 10 -262144 -1
-1;
#X obj 183 16 loadbang;
#X obj 154 63 Common \$0 \$1 myoso;
#X obj 55 116 mknob 25 100 0 1 0 1 \$0-volgran-snd \$0-volgran-rcv
volgran -2 -6 193 10 -258699 -1 -1 9900 1;
#X obj 378 237 Voix2 \$0 3 3;
#X obj 175 108 Bank \$0 2 FluteB 8 1;
#X obj 182 175 Bank \$0 5 Cello 8 1;
#X obj 375 198 l Voix2 \$0 1 1;
#X obj 203 257 Granul1 \$0 1 1 2 3;
#X obj 194 277 Granul1 \$0 2 2 5;
#X obj 172 85 Bank \$0 1 Epinette 8 1.5;
#X obj 378 218 l Voix2 \$0 2 2;
#X obj 202 298 l Granul1 \$0 3 3;
#X obj 379 257 l Voix2 \$0 4 4;
#X obj 380 278 l Voix2 \$0 5 5;
#X obj 380 302 l Voix2 \$0 0 6;
#X obj 204 319 Granul1 \$0 4 4 5;
#X obj 205 341 Granul1 \$0 5 5 4;
#X obj 186 132 Bank \$0 3 Percu 12 3;
#X obj 178 156 Bank \$0 4 GtDidier 8 0.3;
#X obj 171 206 Bank \$0 6 CBNicolas 8 1.2;
#X obj 205 369 Granul1 \$0 0 6;
#X connect 0 0 3 0;
#X connect 1 0 0 0;
#X connect 8 0 11 0;
#X connect 9 0 8 0;
#X connect 10 0 8 0;
